<svg xmlns="http://www.w3.org/2000/svg" width="103.523" height="36.496" viewBox="0 0 103.523 36.496">
  <path id="Path_91" data-name="Path 91" d="M664.062,343.787a2.454,2.454,0,0,1,.537,2.139c-.052.551-.245,1.134.4,1.553.128.083.061.555,0,.83-.325,1.46-.025,1.9,1.484,2.1a.471.471,0,0,1,.288.111c.518.667,1.244.529,1.9.418a4.153,4.153,0,0,1,3,.526,2,2,0,0,0,2.358-.189,3.632,3.632,0,0,0,1.551-2.139,1.513,1.513,0,0,1,1.939-1.272,3.774,3.774,0,0,1,1.547.484c.865.617.528,1.635.532,2.483a1.556,1.556,0,0,1-.669,1.148,2.426,2.426,0,0,1-1.331.01c-.4-.047-.8-.24-1.2-.252-.251-.007-.508.2-.762.313.143.265.221.662.442.773.989.5,2.016.925,3.037,1.358a1.6,1.6,0,0,0,1.607-.293,4.194,4.194,0,0,1,1.1-.36c.1.348.223.691.3,1.044.1.485.173.978.292,1.671-.689,1.273-.308,1.94,1.432,2.02,1.282.059,2.565.091,3.849.131a1.163,1.163,0,0,0,.486-.031,15.96,15.96,0,0,1,4.485-.8,6.461,6.461,0,0,0,2.628-1.232,4.64,4.64,0,0,1,5.147-.466,3.094,3.094,0,0,0,3.058-.1,2.013,2.013,0,0,1,1.87-.08,6.413,6.413,0,0,0,2.066.189c.459.006.919-.152,1.378-.149a1.28,1.28,0,0,1,1.393,1.3c.159,1.368.34,1.568,1.7,1.7.706.071,1.418.089,2.128.1a2.4,2.4,0,0,1,1.85.439c.175.167.572.137.867.136,1.586-.006,3.173-.005,4.758-.063a1.094,1.094,0,0,1,1.132.61,1.87,1.87,0,0,0,2.238.933c1.59-.381,3.142-.921,4.727-1.327a17.361,17.361,0,0,1,2.413-.367c.784-.086,1.573-.137,2.362-.159.265-.007.676.048.763.211.1.187-.052.542-.162.795-.186.427-.822.706-.411,1.384l.807-.3.365,1.291-.759-.045-.815,1.4c-.027.047-.082.1-.076.14.164,1.242-.551,2.611.388,3.714a3.749,3.749,0,0,0,1.543.76,2.792,2.792,0,0,0,1.107.186,1.034,1.034,0,0,0,.774-.361,2.2,2.2,0,0,1,1.629-1.462c.073-.012.186-.069.2-.123.245-1.081,1.105-.847,1.844-.875a.626.626,0,0,0,.242-.034,26.609,26.609,0,0,0,3.024-1.513,2.742,2.742,0,0,1,3.446.307,1.541,1.541,0,0,0,2.268-.018A12.641,12.641,0,0,0,751.941,363c.172-.224.122-.608.226-.9.076-.215.247-.575.36-.569.84.041,1.174-.545,1.59-1.1a3.757,3.757,0,0,1,.953-.781c.039-.026.4.292.38.334a5.957,5.957,0,0,1-.657,1.059,2.913,2.913,0,0,1-.6.427.7.7,0,0,0-.219,1.055,1.138,1.138,0,0,1,.1.879,1.182,1.182,0,0,0,.508,1.709c.221.145.463.257.742.41-.1.163-.147.319-.244.367a1.3,1.3,0,0,0-.748,1.858,1.833,1.833,0,0,1-.458,1.63c-.728.567-.686,1.511-1.308,2.071-.313.282-.6.6-.915.874a2.784,2.784,0,0,1-.755.555,16.792,16.792,0,0,1-2.654.884c-.271.056-.684-.391-.976-.666a.994.994,0,0,0-1.44-.16c-.762.518-1.452.171-2.076-.37-.408-.354-.837-.892-1.192.081a.879.879,0,0,1-.708-.037c-.61-.584-1.138-.426-1.752-.006a13.867,13.867,0,0,1-1.856,1.037,1.726,1.726,0,0,1-2-.121c-.22-.177-.614-.135-.928-.2-.576-.113-1.15-.24-1.729-.337a1.684,1.684,0,0,0-.6.017c-.545.111-1.08.275-1.628.369-1.214.21-2.6.1-3.6.671a4.342,4.342,0,0,1-2.542.583c-.452-.025-.885-.328-1.339-.367a12.291,12.291,0,0,0-2.584-.041,20.143,20.143,0,0,0-2.651.671c-.152.041-.382.074-.43.178-.534,1.162-1.822.814-2.674,1.336-.124.076-.45-.113-.648-.234a1.305,1.305,0,0,0-1.938.391,1.006,1.006,0,0,1-.659.376c-.514.03-1.034-.066-1.552-.073s-1.045.032-1.827.06c-.531-.428-1.585-.728-1.919-.243-.538.781-1.255.6-1.878.506a16.89,16.89,0,0,1-2.56-.827c-.574,1.082-1.7,1.082-3.043.656a5.031,5.031,0,0,1,.143-.635,1.033,1.033,0,0,0-.205-1.187,1.027,1.027,0,0,1-.049-.983,2.1,2.1,0,0,0,.179-2.067,2.794,2.794,0,0,0-1.3-1.885,2.46,2.46,0,0,0-.973-.367c-.9-.038-1.8.04-2.7.01a4,4,0,0,1-1.015-.336l-.384.469c-.063-.021-.133-.022-.162-.057a8.786,8.786,0,0,0-1.382-1.629,3.509,3.509,0,0,0-1.688-.436,1.323,1.323,0,0,1-1.05-.385,6.657,6.657,0,0,0-1.575-.868,1.473,1.473,0,0,1-.478-.48c-.317-.5-.648-.529-1.135-.2a1.2,1.2,0,0,1-.932.2,1.75,1.75,0,0,0-1.631.165,3.073,3.073,0,0,1-2.654-.45c-.46-.319-1.021-1.2-1.764-.277-.067.083-.3.079-.437.05-.548-.115-1.085-.29-1.636-.378-.441-.071-.863-.13-1.206.389-.274.415-1.323.239-1.646-.194a2.9,2.9,0,0,0-3.216-1.373,6.273,6.273,0,0,1-3.5-.586,1.1,1.1,0,0,0-1.384.223,1.591,1.591,0,0,1-1.616.364,9.541,9.541,0,0,0-2.369-.029c-.262,0-.524-.05-.786-.057a14.1,14.1,0,0,0-1.991-.018c-.562.065-.891-.051-1.031-.614-.11-.442-.485-.523-.841-.729a8.05,8.05,0,0,1-1.645-1.493c-.048-.05.136-.458.3-.553a1.313,1.313,0,0,0,.607-1.6,9.653,9.653,0,0,1-.041-2.288,1.291,1.291,0,0,1,.464-.717c.835-.763.916-1.153.366-2.109.429-.636.971-1.21.2-2.028-.369-.392.043-1.207.66-1.477-.107-1.047-.307-2.143.536-3.1.633.523.485,1.165.39,1.758a2.76,2.76,0,0,0,2.1,3.109,1.681,1.681,0,0,0,2.116-1.953c-.141-1.081-.271-2.163-.406-3.245,0-.027,0-.062-.009-.08-1.1-1.5.264-2.138,1.049-2.976l.111-.121Z" transform="translate(-653.937 -342.287)" fill="none" stroke="#000" stroke-width="3"/>
</svg>
