<svg xmlns="http://www.w3.org/2000/svg" width="21.7" height="24.511" viewBox="0 0 21.7 24.511">
  <path id="Icon_metro-gift" data-name="Icon metro-gift" d="M21.634,9.749A9.728,9.728,0,0,0,22.88,8.7,5.346,5.346,0,0,0,24.4,5.9a3.114,3.114,0,0,0-.766-2.788,2.915,2.915,0,0,0-2.116-.826,5.052,5.052,0,0,0-3.474,1.583,13.677,13.677,0,0,0-3.053,5.418A11.061,11.061,0,0,0,12.426,4.1,3.882,3.882,0,0,0,9.717,2.919a2.844,2.844,0,0,0-2.041.811,3.388,3.388,0,0,0,.365,4.749A7.806,7.806,0,0,0,9.755,9.749H4.5v6.2h1.55V26.8h18.6V15.949H26.2v-6.2ZM19.28,5.1a3.36,3.36,0,0,1,2.241-1.072,1.237,1.237,0,0,1,.883.315c.63.63.276,2.09-.758,3.124a10.919,10.919,0,0,1-3.74,2.278H16.68A11.879,11.879,0,0,1,19.28,5.1ZM8.614,5.9a1.189,1.189,0,0,1,.3-.932,1.126,1.126,0,0,1,.808-.3,2.14,2.14,0,0,1,1.476.666A8.615,8.615,0,0,1,13.147,9.1l.036.133L13.05,9.2A8.615,8.615,0,0,1,9.275,7.246,2.206,2.206,0,0,1,8.614,5.9ZM13.8,25.249H7.6V15.174h6.2V25.249Zm0-10.85H6.049V11.3H13.8v3.1Zm9.3,10.85H16.9V15.174h6.2Zm1.55-10.85H16.9V11.3h7.75v3.1Z" transform="translate(-4.499 -2.288)" fill="#fff"/>
</svg>
