<svg xmlns="http://www.w3.org/2000/svg" width="31.953" height="24.852" viewBox="0 0 31.953 24.852">
  <path id="Icon_awesome-images" data-name="Icon awesome-images" d="M26.627,23.552v.888A2.663,2.663,0,0,1,23.965,27.1H2.663A2.663,2.663,0,0,1,0,24.439v-14.2A2.663,2.663,0,0,1,2.663,7.575H3.55V19.114a4.443,4.443,0,0,0,4.438,4.438Zm5.325-4.438V4.913A2.663,2.663,0,0,0,29.29,2.25H7.988A2.663,2.663,0,0,0,5.325,4.913v14.2a2.663,2.663,0,0,0,2.663,2.663h21.3A2.663,2.663,0,0,0,31.953,19.114ZM14.2,7.575a2.663,2.663,0,1,1-2.663-2.663A2.663,2.663,0,0,1,14.2,7.575ZM8.876,15.564l3.08-3.08a.666.666,0,0,1,.941,0l2.192,2.192,7.517-7.517a.666.666,0,0,1,.941,0L28.4,12.013v6.213H8.876Z" transform="translate(0 -2.25)" fill="#237dbe"/>
</svg>
