<svg xmlns="http://www.w3.org/2000/svg" width="240.029" height="92.256" viewBox="0 0 240.029 92.256">
  <g id="Group_25" data-name="Group 25" transform="translate(-223 -669)">
    <g id="Group_20" data-name="Group 20" transform="translate(223 669)">
      <g id="Group_16" data-name="Group 16" transform="translate(102.876 0)">
        <path id="Path_31" data-name="Path 31" d="M472.455,350.971c-2.383.084-4.314.484-5.856,2.035-3.872,3.895-2.53,9.557-1.788,11.408.231.576.907,3.333-1.363,3.333-2.418,0-1.591-2.757-1.36-3.333.742-1.851,2.082-7.513-1.788-11.408-1.544-1.551-3.473-1.951-5.858-2.035a7.72,7.72,0,0,0-8.131,7.452c0,3.018,1.773,5.882,5.3,6.18,2.589.219,5.312-1.154,5.285-4.593a3.246,3.246,0,0,0-4.726-2.93c-2.891,1.739-.278,5.256,1.627,3.4a.976.976,0,0,1-.164.016.822.822,0,0,1-.916-.86,1.033,1.033,0,0,1,2.064-.006,2.291,2.291,0,0,1-2.508,2.449c-2.676,0-3.008-2.691-2.786-3.663.825-3.573,4.823-3.7,6.418-2.877a4.5,4.5,0,0,1,2.725,4.215,11.914,11.914,0,0,1-2.153,6.507c-5.334,8.646.062,16.234,6.915,16.319v0c.02,0,.038,0,.056,0s.038,0,.058,0v0c6.851-.085,12.249-7.673,6.914-16.319a11.93,11.93,0,0,1-2.151-6.507,4.5,4.5,0,0,1,2.723-4.215c1.6-.822,5.6-.7,6.42,2.877.222.972-.112,3.663-2.785,3.663a2.288,2.288,0,0,1-2.505-2.449,1.031,1.031,0,0,1,2.061.006.822.822,0,0,1-.917.86.95.95,0,0,1-.163-.016c1.9,1.854,4.52-1.663,1.627-3.4a3.246,3.246,0,0,0-4.726,2.93c-.027,3.439,2.7,4.812,5.286,4.593,3.525-.3,5.3-3.162,5.3-6.18A7.72,7.72,0,0,0,472.455,350.971Z" transform="translate(-446.311 -338.451)" fill="#237dbe"/>
        <g id="Group_15" data-name="Group 15" transform="translate(4.475)">
          <g id="Group_13" data-name="Group 13" transform="translate(5.708 4.387)">
            <path id="Path_32" data-name="Path 32" d="M492.278,330.068s1.392-2.984,6.015-3.514l.81-1.517-2.011-.159.984-2.822-2.642,1.366-.419-1.972-1.638,1.171-1.071-2.813-1.134,2.762-1.587-1.241-.506,1.95-2.64-1.485.919,2.865-2.015.068.868,1.819-.023.005C490.7,327.073,492.278,330.068,492.278,330.068Z" transform="translate(-485.342 -319.809)" fill="#237dbe"/>
          </g>
          <g id="Group_14" data-name="Group 14">
            <path id="Path_33" data-name="Path 33" d="M466.428,330.8a1.481,1.481,0,1,1-1.481-1.482A1.481,1.481,0,0,1,466.428,330.8Z" transform="translate(-463.465 -322.45)" fill="#237dbe"/>
            <path id="Path_34" data-name="Path 34" d="M483.475,311.28A1.48,1.48,0,1,1,482,309.8,1.481,1.481,0,0,1,483.475,311.28Z" transform="translate(-476.067 -308.024)" fill="#237dbe"/>
            <path id="Path_35" data-name="Path 35" d="M534.669,311.28a1.48,1.48,0,1,1-1.479-1.481A1.482,1.482,0,0,1,534.669,311.28Z" transform="translate(-513.903 -308.024)" fill="#237dbe"/>
            <path id="Path_36" data-name="Path 36" d="M552.143,330.8a1.481,1.481,0,1,1-1.481-1.482A1.482,1.482,0,0,1,552.143,330.8Z" transform="translate(-526.818 -322.45)" fill="#237dbe"/>
            <path id="Path_37" data-name="Path 37" d="M509.461,304.477A1.481,1.481,0,1,1,507.98,303,1.48,1.48,0,0,1,509.461,304.477Z" transform="translate(-495.271 -302.996)" fill="#237dbe"/>
          </g>
        </g>
      </g>
      <g id="Group_17" data-name="Group 17" transform="translate(0 48.684)">
        <path id="Path_38" data-name="Path 38" d="M68.608,516.731c-.325-.027-.623-.05-.892-.07s-.578-.037-.93-.05-.722-.021-1.112-.021q-.467,0-.981.021t-1,.05c-.323.02-.627.037-.909.051s-.525.02-.728.02v-.141a2.3,2.3,0,0,0,1.426-.566q.335-.4-.009-1.4-.181-.465-.394-1.072c-.141-.405-.28-.789-.414-1.153s-.289-.8-.466-1.3l-2.427-.04-2.326.04q-.323.891-.535,1.447t-.4,1.072c-.13.343-.206.569-.235.678-.067.216-.13.424-.191.627a1.843,1.843,0,0,0-.092.506.914.914,0,0,0,.141.516,1.114,1.114,0,0,0,.365.343,1.9,1.9,0,0,0,.5.2,3,3,0,0,0,.536.091v.141c-.081,0-.254-.006-.516-.02s-.542-.031-.84-.051-.576-.037-.838-.05-.435-.021-.516-.021c-.029,0-.161.007-.406.021s-.522.031-.838.05-.625.037-.921.051-.513.02-.647.02v-.141a5.67,5.67,0,0,0,1.114-.3,2.634,2.634,0,0,0,.766-.475,2.744,2.744,0,0,0,.567-.738,10.316,10.316,0,0,0,.506-1.092q.162-.4.608-1.487t1.031-2.488q.585-1.405,1.215-2.923t1.151-2.792q.528-1.275,1.213-2.913h.164l5.361,12.683a5.19,5.19,0,0,0,1.123,1.73,2.806,2.806,0,0,0,1.79.8Zm-8.76-11.57a.6.6,0,0,1-.04-.121c-.014-.054-.034-.081-.061-.081s-.061.027-.061.081l-2.024,5.32,2.044.061,2.245-.061Z" transform="translate(-52 -498.304)" fill="#a5b9b9"/>
        <path id="Path_39" data-name="Path 39" d="M124.183,515.833a2.855,2.855,0,0,0,.1.768,1.5,1.5,0,0,0,.343.628,1.579,1.579,0,0,0,.647.4,2.565,2.565,0,0,0,1.013.1q.625-.04.908-.041h.426c.108,0,.213,0,.314-.01s.28-.017.538-.031a4.688,4.688,0,0,0,.918-.152,1.955,1.955,0,0,0,.717-.374,2.494,2.494,0,0,0,.587-.728,7.971,7.971,0,0,0,.527-1.194l.161.082-.544,2.608a1.309,1.309,0,0,1-.235.517c-.112.154-.366.226-.758.212l-5.219-.161-5.1.161v-.161c.4-.054.758-.114,1.062-.182a2.4,2.4,0,0,0,.758-.293,1.281,1.281,0,0,0,.466-.516A2.143,2.143,0,0,0,122,516.6q.021-.423.02-1.294v-7.322c0-.39,0-.762-.011-1.112s-.016-.668-.029-.951a2.15,2.15,0,0,0-.182-.869,1.314,1.314,0,0,0-.455-.516,2.291,2.291,0,0,0-.731-.293c-.289-.067-.623-.128-1-.181v-.122c.215,0,.479,0,.789.009s.629.021.959.04.65.038.957.051.576.021.8.021c.267,0,.556,0,.863-.011s.618-.016.928-.031.6-.027.878-.04.518-.026.719-.04v.141a3.382,3.382,0,0,0-1.73.486,1.744,1.744,0,0,0-.556,1.335c-.014.228-.022.505-.032.828s-.009.7-.009,1.133l-.02,4.086c0,.162,0,.4.009.708s.011.655.011,1.032,0,.735.009,1.112.011.722.011,1.032Z" transform="translate(-101.911 -500.196)" fill="#a5b9b9"/>
        <path id="Path_40" data-name="Path 40" d="M175.5,518.584q-.454-.021-.961-.03l-1-.02c-.325-.007-.616-.011-.876-.011s-.523,0-.836.011l-.943.02c-.316.006-.627.016-.93.03s-.562.028-.777.04V518.5q.565-.081,1-.183a2.159,2.159,0,0,0,.719-.293,1.335,1.335,0,0,0,.444-.516,2.177,2.177,0,0,0,.184-.869c.011-.284.018-.714.018-1.295v-7.363c0-.39,0-.762-.009-1.112s-.018-.668-.029-.951a2.142,2.142,0,0,0-.182-.869,1.32,1.32,0,0,0-.457-.516,2.274,2.274,0,0,0-.728-.293c-.289-.067-.625-.128-1-.181v-.122c.213,0,.477,0,.789.009s.63.021.959.04.65.038.966.051.583.021.814.021c.273,0,.565,0,.878-.011s.623-.016.932-.031.605-.027.881-.04.515-.026.719-.04v.141a3.369,3.369,0,0,0-1.73.486,1.74,1.74,0,0,0-.558,1.335c-.011.228-.022.505-.029.828s-.011.7-.011,1.133l-.02,3.621.02,2.974v1.315a9.421,9.421,0,0,0,.04,1.011,2.552,2.552,0,0,0,.161.709,1.213,1.213,0,0,0,.4.485,2.143,2.143,0,0,0,.737.323,7.093,7.093,0,0,0,1.194.183v.141C176.066,518.612,175.806,518.6,175.5,518.584Z" transform="translate(-138.581 -500.196)" fill="#a5b9b9"/>
        <path id="Path_41" data-name="Path 41" d="M212.645,516.731q-.487-.04-.89-.07c-.269-.02-.58-.037-.93-.05s-.722-.021-1.114-.021c-.309,0-.637.007-.979.021s-.679.031-1,.05-.628.037-.912.051-.524.02-.726.02v-.141a2.3,2.3,0,0,0,1.425-.566q.333-.4-.011-1.4c-.121-.31-.251-.667-.394-1.072s-.28-.789-.412-1.153-.294-.8-.468-1.3l-2.427-.04-2.326.04q-.322.891-.533,1.447t-.406,1.072c-.13.343-.206.569-.233.678-.067.216-.132.424-.193.627a1.805,1.805,0,0,0-.09.506.9.9,0,0,0,.141.516,1.1,1.1,0,0,0,.363.343,1.919,1.919,0,0,0,.5.2,2.984,2.984,0,0,0,.538.091v.141c-.083,0-.253-.006-.518-.02s-.542-.031-.838-.051-.578-.037-.838-.05-.437-.021-.515-.021c-.029,0-.164.007-.406.021s-.525.031-.841.05-.623.037-.919.051-.513.02-.65.02v-.141a5.555,5.555,0,0,0,1.111-.3,2.63,2.63,0,0,0,.771-.475,2.841,2.841,0,0,0,.567-.738,10.9,10.9,0,0,0,.5-1.092q.161-.4.607-1.487t1.033-2.488q.585-1.405,1.212-2.923T203,504.291q.524-1.275,1.212-2.913h.162l5.36,12.683a5.276,5.276,0,0,0,1.123,1.73,2.814,2.814,0,0,0,1.791.8Zm-8.76-11.57a.836.836,0,0,1-.038-.121c-.014-.054-.036-.081-.061-.081-.043,0-.06.027-.06.081l-2.024,5.32,2.041.061,2.246-.061Z" transform="translate(-158.458 -498.304)" fill="#a5b9b9"/>
        <path id="Path_42" data-name="Path 42" d="M250.589,493.964a1.738,1.738,0,0,0-.556,1.335c-.013.228-.022.505-.031.828s-.009.7-.009,1.133l-.02,3.621q0,.951-.02,1.9t-.032,1.78c-.006.554-.013,1.052-.017,1.5s-.011.8-.011,1.072c0,.135,0,.3-.011.5s-.011.354-.011.476v.2l-.24.061q-2.853-3.056-5.654-6.069t-5.656-6.048l-.15-.152a2.094,2.094,0,0,1-.15-.172c-.016.175-.022.351-.022.526v.809l-.021,3.621.021,2.974v1.315a8.781,8.781,0,0,0,.042,1.011,2.34,2.34,0,0,0,.162.709,1.16,1.16,0,0,0,.392.485,2.151,2.151,0,0,0,.74.323,7.082,7.082,0,0,0,1.192.183v.141q-.645-.04-1.465-.07t-1.587-.031q-.71,0-1.569.031c-.573.02-1.073.044-1.508.07V507.9c.392-.054.731-.115,1.013-.183a2.247,2.247,0,0,0,.717-.293,1.255,1.255,0,0,0,.446-.516,2.294,2.294,0,0,0,.17-.869c.015-.284.025-.719.034-1.3s.007-1.21.007-1.871,0-1.315-.007-1.921-.011-1.073-.011-1.4v-3.762c0-.432-.007-.8-.022-1.093q-.646-.626-1.284-1.163a15.987,15.987,0,0,0-1.284-.981,11.353,11.353,0,0,0-2.194-1.143,6.536,6.536,0,0,0-2.418-.475,9.452,9.452,0,0,0-1.071.06,7.474,7.474,0,0,0-1.114.223,6.666,6.666,0,0,0-1.1.394,9.511,9.511,0,0,0-1.062.6l-.1-.08a3.46,3.46,0,0,1,.352-.345c.143-.121.291-.238.446-.353s.3-.219.426-.314a2.179,2.179,0,0,1,.314-.2,9.154,9.154,0,0,1,4.511-1.315,7.11,7.11,0,0,1,2.215.354,11.047,11.047,0,0,1,2.1.951,15.631,15.631,0,0,1,1.972,1.376q.948.78,1.82,1.628t1.679,1.72c.538.581,1.054,1.126,1.538,1.638q.648.688,1.456,1.578t1.67,1.84q.857.951,1.679,1.871c.545.614,1.029,1.163,1.445,1.648h.021c.029,0,.042-.013.042-.04v-.547q0-.485-.011-1.183c-.007-.465-.016-.957-.02-1.476s-.011-.995-.011-1.427v-2.164q0-.566-.009-1.092c-.007-.35-.018-.668-.031-.951a2.155,2.155,0,0,0-.181-.869,1.3,1.3,0,0,0-.455-.516,2.26,2.26,0,0,0-.72-.294c-.282-.067-.618-.128-1.011-.181v-.122c.215,0,.459,0,.728.009s.542.021.82.04.549.038.818.051.52.021.749.021q.83,0,1.548-.041t1.3-.08v.141A3.376,3.376,0,0,0,250.589,493.964Z" transform="translate(-179.948 -489.594)" fill="#a5b9b9"/>
        <path id="Path_43" data-name="Path 43" d="M344.366,504.721l-.161-.041a1.925,1.925,0,0,0-.435-1.648,2.662,2.662,0,0,0-1.67-.455l-3.3-.04v2.083c0,.594,0,1.248-.009,1.963s-.011,1.395-.011,2.043v4.855a9.416,9.416,0,0,0,.04,1.011,2.412,2.412,0,0,0,.162.709,1.19,1.19,0,0,0,.394.485,2.157,2.157,0,0,0,.74.323,7.1,7.1,0,0,0,1.192.183v.141c-.215-.013-.475-.027-.777-.04s-.625-.024-.961-.03l-.993-.02q-.484-.011-.867-.011c-.244,0-.52,0-.831.011l-.939.02c-.316.006-.628.016-.932.03s-.562.028-.777.04v-.121c.39-.054.728-.115,1.011-.183a2.2,2.2,0,0,0,.717-.293,1.222,1.222,0,0,0,.446-.516,2.231,2.231,0,0,0,.172-.869c.013-.27.022-.691.032-1.264s.009-1.184.009-1.83v-6.411c0-.419,0-.8-.009-1.144s-.011-.624-.011-.84v-.323l-3.277.04a3.861,3.861,0,0,0-.982.1,1.546,1.546,0,0,0-.637.333,2.594,2.594,0,0,0-.486.6q-.222.364-.526.889l-.141-.1c0-.041.045-.244.133-.607s.181-.754.284-1.173.238-.971.412-1.658l.121-.122a1.152,1.152,0,0,0,.446.465,2.672,2.672,0,0,0,.6.253,3.431,3.431,0,0,0,.648.122c.222.02.417.031.576.031l4.027.1,4.632-.1c.47-.013.849-.037,1.132-.07a2.861,2.861,0,0,0,.688-.152,1.042,1.042,0,0,0,.386-.232,1.5,1.5,0,0,0,.22-.314l.164.08Z" transform="translate(-257.876 -497.904)" fill="#a5b9b9"/>
        <path id="Path_44" data-name="Path 44" d="M407.482,518.584c-.3-.014-.623-.024-.964-.03l-.99-.02c-.323-.007-.614-.011-.872-.011-.242,0-.52,0-.829.011l-.943.02c-.319.006-.627.016-.93.03s-.565.028-.782.04V518.5q.564-.081,1-.183a2.151,2.151,0,0,0,.715-.293,1.35,1.35,0,0,0,.441-.516,2.145,2.145,0,0,0,.181-.869q.02-.3.02-.93v-4.471H395.7v.931l.02,2.286v1.315a8.766,8.766,0,0,0,.043,1.011,2.414,2.414,0,0,0,.161.709,1.194,1.194,0,0,0,.395.485,2.165,2.165,0,0,0,.737.323,7.162,7.162,0,0,0,1.195.183v.141c-.218-.013-.475-.027-.778-.04s-.625-.024-.961-.03l-1-.02c-.325-.007-.618-.011-.876-.011s-.524,0-.836.011l-.943.02c-.318.006-.627.016-.932.03s-.563.028-.778.04V518.5q.565-.081,1-.183a2.119,2.119,0,0,0,.717-.293,1.333,1.333,0,0,0,.444-.516,2.141,2.141,0,0,0,.184-.869c.014-.284.02-.714.02-1.295v-7.363c0-.39,0-.762-.011-1.112s-.016-.668-.029-.951a2.149,2.149,0,0,0-.182-.869,1.307,1.307,0,0,0-.457-.516,2.255,2.255,0,0,0-.729-.293c-.289-.067-.623-.128-1-.181v-.122c.215,0,.477,0,.789.009s.63.021.961.04.65.038.964.051.585.021.816.021c.271,0,.565,0,.876-.011s.623-.016.934-.031.6-.027.879-.04.518-.026.72-.04v.141a3.367,3.367,0,0,0-1.73.487,1.752,1.752,0,0,0-.556,1.339c-.013.23-.024.507-.031.833s-.011.7-.011,1.135l-.02,2.659,3.733.04,4.1-.02v-2.5q0-.589-.011-1.146c-.007-.372-.015-.7-.029-.985a2.154,2.154,0,0,0-.181-.872,1.31,1.31,0,0,0-.453-.517,2.244,2.244,0,0,0-.724-.3c-.289-.068-.621-.128-1-.182v-.122c.217,0,.48,0,.791.009s.632.021.961.04.652.038.963.051.581.021.809.021c.271,0,.563,0,.872-.011s.621-.016.932-.031.6-.027.881-.04.513-.026.717-.04v.141a3.369,3.369,0,0,0-1.73.486,1.744,1.744,0,0,0-.556,1.335c-.014.228-.025.505-.029.828s-.011.7-.011,1.133l-.022,3.621.022,2.974v1.315a9.387,9.387,0,0,0,.041,1.011,2.326,2.326,0,0,0,.161.709,1.187,1.187,0,0,0,.395.485,2.121,2.121,0,0,0,.737.323,7.164,7.164,0,0,0,1.194.183v.141C408.044,518.612,407.784,518.6,407.482,518.584Z" transform="translate(-302.634 -500.196)" fill="#a5b9b9"/>
        <path id="Path_45" data-name="Path 45" d="M477.66,513.307a7.5,7.5,0,0,1-1.7,2.508,7.973,7.973,0,0,1-2.591,1.669,8.6,8.6,0,0,1-3.256.606,8.306,8.306,0,0,1-3.288-.627,7.7,7.7,0,0,1-2.5-1.679,7.362,7.362,0,0,1-1.589-2.448,7.864,7.864,0,0,1-.02-5.754,7.418,7.418,0,0,1,1.569-2.468,7.83,7.83,0,0,1,2.548-1.75,8.559,8.559,0,0,1,3.478-.668,9.311,9.311,0,0,1,3.178.526,7.406,7.406,0,0,1,2.517,1.5,6.8,6.8,0,0,1,1.66,2.346,7.73,7.73,0,0,1,.594,3.1A8.077,8.077,0,0,1,477.66,513.307Zm-2.205-2.711a9.639,9.639,0,0,0-.4-2.836,7.353,7.353,0,0,0-1.143-2.288,5.62,5.62,0,0,0-1.759-1.54,4.621,4.621,0,0,0-2.277-.567,4.189,4.189,0,0,0-1.941.456,4.465,4.465,0,0,0-1.537,1.307,6.54,6.54,0,0,0-1.024,2.077,9.564,9.564,0,0,0-.372,2.785,9.871,9.871,0,0,0,.412,2.907,7.8,7.8,0,0,0,1.154,2.35,5.377,5.377,0,0,0,1.791,1.57,4.83,4.83,0,0,0,2.326.566,4.075,4.075,0,0,0,1.739-.395,4.278,4.278,0,0,0,1.517-1.215,6.446,6.446,0,0,0,1.082-2.107,10.087,10.087,0,0,0,.414-3.069Z" transform="translate(-355.168 -499.278)" fill="#a5b9b9"/>
        <path id="Path_46" data-name="Path 46" d="M542.687,515.725a4.052,4.052,0,0,1-1.152,1.355,4.974,4.974,0,0,1-1.645.8,7.011,7.011,0,0,1-1.919.263,5.614,5.614,0,0,1-2.118-.414,6.969,6.969,0,0,1-1.878-1.122c.054-.5.094-.964.121-1.4s.054-.944.083-1.538h.141a4.2,4.2,0,0,0,1.193,2.852,3.781,3.781,0,0,0,2.669.951,2.722,2.722,0,0,0,1.114-.223,2.824,2.824,0,0,0,.87-.587,2.493,2.493,0,0,0,.557-.849,2.678,2.678,0,0,0,.191-.992,2.78,2.78,0,0,0-.122-.86,2.567,2.567,0,0,0-.383-.728,4.344,4.344,0,0,0-.69-.709c-.28-.235-.619-.5-1.011-.778-.473-.351-.952-.688-1.445-1.012a9.087,9.087,0,0,1-1.336-1.063,4.968,4.968,0,0,1-.97-1.3,3.729,3.729,0,0,1-.375-1.72,3.34,3.34,0,0,1,.325-1.467,3.382,3.382,0,0,1,.919-1.172,4.608,4.608,0,0,1,1.436-.789,5.644,5.644,0,0,1,1.871-.293c.242,0,.513.013.809.041a8.792,8.792,0,0,1,.9.131,7.376,7.376,0,0,1,.88.233,2.932,2.932,0,0,1,.748.364q-.02.708.032,1.436c.034.485.062.965.09,1.437l-.182.061a4.426,4.426,0,0,0-.5-1.568,3.3,3.3,0,0,0-.82-.981,2.78,2.78,0,0,0-.97-.505,3.582,3.582,0,0,0-.971-.142,2.4,2.4,0,0,0-.982.2,2.577,2.577,0,0,0-.789.536,2.448,2.448,0,0,0-.526.789,2.5,2.5,0,0,0-.191.982,1.963,1.963,0,0,0,.141.768,2.4,2.4,0,0,0,.423.668,5.255,5.255,0,0,0,.686.647c.267.216.571.445.905.688.47.337.96.678,1.463,1.021a11.6,11.6,0,0,1,1.392,1.112,5.476,5.476,0,0,1,1.037,1.315,3.3,3.3,0,0,1,.4,1.648A4.028,4.028,0,0,1,542.687,515.725Z" transform="translate(-408.227 -499.451)" fill="#a5b9b9"/>
        <path id="Path_47" data-name="Path 47" d="M611.109,511.46a1.706,1.706,0,0,0-.556,1.325q-.02.283-.02.85V517.3a2.3,2.3,0,0,1-.466.173c-.215.06-.453.121-.708.181s-.513.115-.769.162-.473.084-.648.111c-.338.041-.715.088-1.131.142a11.194,11.194,0,0,1-1.4.081,11.076,11.076,0,0,1-3.216-.475,8.687,8.687,0,0,1-2.824-1.436,7.134,7.134,0,0,1-2.781-5.856,6.6,6.6,0,0,1,.748-3.175,7.508,7.508,0,0,1,1.975-2.367,8.767,8.767,0,0,1,2.781-1.477,10.154,10.154,0,0,1,3.155-.506c.175,0,.431,0,.769.01a10.764,10.764,0,0,1,1.132.089c.419.052.859.124,1.327.215a6.345,6.345,0,0,1,1.322.414l.627,3.277-.242.041a4,4,0,0,0-.616-1.346,4.617,4.617,0,0,0-1.064-1.071,4.878,4.878,0,0,0-1.446-.708,5.964,5.964,0,0,0-1.768-.253,5.5,5.5,0,0,0-2.387.517,5.734,5.734,0,0,0-1.871,1.4,6.432,6.432,0,0,0-1.214,2.057,7.134,7.134,0,0,0-.434,2.491,8.518,8.518,0,0,0,.414,2.6,7.155,7.155,0,0,0,1.264,2.36,6.5,6.5,0,0,0,2.145,1.713,6.673,6.673,0,0,0,3.054.658c.175,0,.367-.01.576-.031s.412-.044.607-.071.368-.054.516-.081a1.234,1.234,0,0,0,.3-.081c.029-.687.04-1.234.04-1.638v-1.7c0-.35,0-.627-.018-.829a2.212,2.212,0,0,0-.184-.88,1.356,1.356,0,0,0-.455-.536,2.246,2.246,0,0,0-.726-.314,9.672,9.672,0,0,0-1-.193v-.16c.217,0,.48,0,.789.009s.632.02.962.04.65.037.961.05.581.021.809.021c.269,0,.56,0,.869-.01s.622-.017.93-.031.605-.026.881-.04.515-.027.716-.04v.16A3.573,3.573,0,0,0,611.109,511.46Z" transform="translate(-454.509 -499.394)" fill="#a5b9b9"/>
        <path id="Path_48" data-name="Path 48" d="M671.432,516.731c-.325-.027-.621-.05-.892-.07s-.578-.037-.93-.05-.722-.021-1.112-.021q-.467,0-.982.021c-.343.013-.679.031-1,.05s-.627.037-.91.051-.526.02-.728.02v-.141a2.294,2.294,0,0,0,1.425-.566q.334-.4-.009-1.4c-.121-.31-.254-.667-.395-1.072s-.28-.789-.415-1.153-.289-.8-.465-1.3l-2.428-.04-2.326.04q-.322.891-.536,1.447t-.406,1.072c-.127.343-.206.569-.23.678-.07.216-.132.424-.193.627a1.845,1.845,0,0,0-.092.506.914.914,0,0,0,.141.516,1.089,1.089,0,0,0,.365.343,1.928,1.928,0,0,0,.5.2,2.994,2.994,0,0,0,.536.091v.141c-.081,0-.254-.006-.516-.02s-.542-.031-.84-.051-.577-.037-.839-.05-.434-.021-.517-.021q-.038,0-.4.021c-.242.013-.522.031-.838.05s-.626.037-.921.051-.513.02-.647.02v-.141a5.727,5.727,0,0,0,1.114-.3,2.607,2.607,0,0,0,.766-.475,2.749,2.749,0,0,0,.567-.738,10.99,10.99,0,0,0,.506-1.092q.162-.4.605-1.487t1.033-2.488q.585-1.405,1.214-2.923t1.152-2.792q.527-1.275,1.213-2.913h.164l5.36,12.683a5.229,5.229,0,0,0,1.12,1.73,2.816,2.816,0,0,0,1.793.8Zm-8.761-11.57a.7.7,0,0,1-.04-.121c-.013-.054-.033-.081-.06-.081s-.061.027-.061.081l-2.024,5.32,2.044.061,2.246-.061Z" transform="translate(-497.547 -498.304)" fill="#a5b9b9"/>
        <path id="Path_49" data-name="Path 49" d="M745.368,521.353a3.97,3.97,0,0,1-.993.526,8.756,8.756,0,0,1-1.221.364,12.438,12.438,0,0,1-1.264.213,10.177,10.177,0,0,1-1.112.07,8.432,8.432,0,0,1-2.763-.435,9.4,9.4,0,0,1-2.335-1.183,11.108,11.108,0,0,1-1.964-1.75,22.088,22.088,0,0,1-1.669-2.133c-.517-.756-1-1.538-1.445-2.347s-.87-1.6-1.276-2.366a4.791,4.791,0,0,1-.809.132,6.286,6.286,0,0,1-1.071.01v3.378a9.428,9.428,0,0,0,.04,1.011,2.337,2.337,0,0,0,.163.709,1.171,1.171,0,0,0,.393.485,2.138,2.138,0,0,0,.74.323,7.077,7.077,0,0,0,1.194.183v.141c-.218-.013-.475-.027-.782-.04s-.623-.024-.959-.03l-.991-.02c-.325-.007-.614-.011-.872-.011-.242,0-.517,0-.829.011l-.939.02q-.475.009-.932.03c-.3.014-.562.028-.777.04v-.121q.564-.081,1-.183a2.119,2.119,0,0,0,.717-.293,1.318,1.318,0,0,0,.446-.516,2.141,2.141,0,0,0,.181-.869c.014-.269.023-.688.023-1.254v-2.791c0-.337,0-.661-.014-.971s-.009-.594-.009-.85V506.97q0-.526-.02-.951a2.432,2.432,0,0,0-.161-.869,1.171,1.171,0,0,0-.426-.516,2.137,2.137,0,0,0-.7-.294c-.278-.068-.609-.127-1-.182v-.141c.862,0,1.568.013,2.113.04s.988.04,1.324.04q.589,0,1.175-.031c.393-.021.783-.031,1.173-.031a11.76,11.76,0,0,1,1.882.162,6.686,6.686,0,0,1,1.831.566,3.861,3.861,0,0,1,1.4,1.123,2.905,2.905,0,0,1,.556,1.83,3.042,3.042,0,0,1-.244,1.2,4,4,0,0,1-.657,1.062,5.471,5.471,0,0,1-.959.88,6.166,6.166,0,0,1-1.155.657q.565,1.032,1.232,2.186t1.459,2.285a22.362,22.362,0,0,0,1.71,2.164,13.135,13.135,0,0,0,1.981,1.821,9.5,9.5,0,0,0,2.277,1.254,7.088,7.088,0,0,0,2.565.465,6.366,6.366,0,0,0,1.347-.141,11.607,11.607,0,0,0,1.3-.364Zm-13.623-14.594a3.659,3.659,0,0,0-1.031-1.245,4.188,4.188,0,0,0-1.456-.708,6.335,6.335,0,0,0-1.67-.223l-.141.2v3.094l-.021,3.216v.829a6.151,6.151,0,0,0,1.71-.283,6.085,6.085,0,0,0,1.506-.7,3.783,3.783,0,0,0,1.082-1.042,2.286,2.286,0,0,0,.414-1.315A3.9,3.9,0,0,0,731.745,506.759Z" transform="translate(-547.859 -500.255)" fill="#a5b9b9"/>
        <path id="Path_50" data-name="Path 50" d="M797.563,514.292a7.042,7.042,0,0,1-1.86,2.4,8.191,8.191,0,0,1-2.743,1.476,10.669,10.669,0,0,1-3.306.505,19.238,19.238,0,0,1-2.023-.11,19.3,19.3,0,0,0-2.024-.112h-.726c-.312,0-.634,0-.971.011l-.981.02c-.316.008-.585.018-.8.031v-.161c.376-.054.715-.114,1.013-.182a2.22,2.22,0,0,0,.746-.3,1.412,1.412,0,0,0,.475-.526,1.972,1.972,0,0,0,.194-.85c.012-.187.018-.444.018-.768s0-.709.012-1.112.009-.829.009-1.275,0-.893-.009-1.3-.012-.792-.012-1.142V507.87c0-.39,0-.762-.009-1.112s-.018-.668-.031-.951a1.975,1.975,0,0,0-.181-.809,1.4,1.4,0,0,0-.444-.526,2.155,2.155,0,0,0-.719-.314,9.289,9.289,0,0,0-1-.192v-.141l3.438.08a13.864,13.864,0,0,0,1.548-.05q.861-.07,1.771-.07a15.855,15.855,0,0,1,3.457.374,8.848,8.848,0,0,1,2.974,1.223,6.42,6.42,0,0,1,2.084,2.236,6.79,6.79,0,0,1,.789,3.408A7.445,7.445,0,0,1,797.563,514.292Zm-2.537-5.724a6.894,6.894,0,0,0-1.7-2.225,7.874,7.874,0,0,0-2.452-1.427,8.378,8.378,0,0,0-2.9-.505,2.383,2.383,0,0,0-.836.132c-.236.087-.355.32-.355.7q0,.89-.02,2.114t-.02,2.6v4.733q0,1.072.02,1.578a2.36,2.36,0,0,0,.374.911,1.735,1.735,0,0,0,.636.536,2.781,2.781,0,0,0,.856.263,6.873,6.873,0,0,0,1.019.07,6.637,6.637,0,0,0,2.6-.475,5.1,5.1,0,0,0,1.889-1.335,5.713,5.713,0,0,0,1.139-2.073,8.91,8.91,0,0,0,.386-2.691A6.535,6.535,0,0,0,795.026,508.568Z" transform="translate(-591.638 -500.082)" fill="#a5b9b9"/>
        <path id="Path_51" data-name="Path 51" d="M863.543,516.744a.921.921,0,0,1-.191.394.551.551,0,0,1-.395.111l-6.068-.1-3.7.1v-.162a9.517,9.517,0,0,0,.991-.182,2.049,2.049,0,0,0,.679-.294,1.22,1.22,0,0,0,.414-.517,2.444,2.444,0,0,0,.161-.871q.021-.426.02-1.3v-7.312c0-.378,0-.742-.011-1.093s-.016-.669-.029-.952a2.44,2.44,0,0,0-.161-.871,1.21,1.21,0,0,0-.414-.516,2.013,2.013,0,0,0-.688-.294,9.98,9.98,0,0,0-1-.183v-.162c.3.027.661.047,1.094.061s.874.028,1.333.04.906.021,1.333.021h1.113l3.014-.021h.892a3.65,3.65,0,0,0,.636-.048,1.247,1.247,0,0,0,.456-.166,1.065,1.065,0,0,0,.323-.352l.143.1a4.8,4.8,0,0,0-.152.951c-.023.324-.045.56-.072.708s-.027.3-.04.485-.022.378-.029.567-.016.367-.021.536-.011.307-.011.414h-.181a2.875,2.875,0,0,0-.688-1.759,2.475,2.475,0,0,0-1.8-.668l-1.053-.02h-1.78v5.785c.148,0,.414,0,.8-.01s.771-.01,1.161-.01q.609,0,1.537-.02a1.964,1.964,0,0,0,.659-.092,1.095,1.095,0,0,0,.677-.617c.067-.147.134-.309.2-.485.026,0,.067.027.12.081-.024.135-.049.286-.069.455s-.04.338-.061.507-.038.33-.052.485-.02.287-.02.394v.506c0,.175,0,.35.011.526s.009.336.009.485v.344l-.181-.021c-.014-.174-.039-.363-.07-.566a1.57,1.57,0,0,0-.2-.556,1.214,1.214,0,0,0-.446-.424,1.513,1.513,0,0,0-.777-.172l-3.3-.06v2.406c0,.257,0,.517.011.779s.009.516.009.759v.586a3.744,3.744,0,0,0,.1.941,1.447,1.447,0,0,0,.354.657,1.362,1.362,0,0,0,.708.364,4.721,4.721,0,0,0,1.143.082c.188-.013.337-.021.444-.021s.211,0,.305-.009.19-.018.293-.031.241-.027.415-.041a4.129,4.129,0,0,0,.82-.191,2.013,2.013,0,0,0,.686-.415,3.146,3.146,0,0,0,.6-.758,7.144,7.144,0,0,0,.549-1.2l.162.082Z" transform="translate(-644.127 -498.822)" fill="#a5b9b9"/>
        <path id="Path_52" data-name="Path 52" d="M918.679,518.23c0,.2-.011.354-.02.476s-.009.188-.009.2l-.222.061-.538-.556q-.514-.535-1.416-1.477t-1.982-2.074q-1.081-1.132-2.265-2.356t-2.245-2.326q-1.063-1.1-1.91-1.992t-1.277-1.335v1.011l-.018,3.621.018,2.974v1.315a8.84,8.84,0,0,0,.042,1.011,2.4,2.4,0,0,0,.162.709,1.185,1.185,0,0,0,.395.485,2.132,2.132,0,0,0,.739.323,7.07,7.07,0,0,0,1.193.183v.141c-.433-.027-.921-.05-1.468-.07s-1.076-.031-1.586-.031q-.707,0-1.569.031c-.571.02-1.076.044-1.506.07V518.5c.39-.054.728-.115,1.01-.183a2.284,2.284,0,0,0,.72-.293,1.231,1.231,0,0,0,.444-.516,2.231,2.231,0,0,0,.172-.869c.014-.284.021-.714.021-1.295v-7.363c0-.39,0-.762-.011-1.112s-.015-.668-.029-.951a2.145,2.145,0,0,0-.181-.869,1.285,1.285,0,0,0-.457-.516,2.258,2.258,0,0,0-.717-.293c-.282-.067-.618-.128-1.01-.181v-.122c.363.027.663.047.9.061s.448.02.637.02.367,0,.535-.01.368-.01.6-.01c.083,0,.195,0,.345-.011l.464-.02.455-.021c.141-.006.254-.009.334-.009q.85.931,1.558,1.7t1.609,1.74q.9.971,1.84,2t1.842,2.013q.9.981,1.618,1.76t1.175,1.264c.3.325.459.5.473.526h.022c.027,0,.038-.013.038-.04s0-.229-.009-.567-.011-.741-.011-1.213,0-1-.009-1.538-.009-1.025-.009-1.457c0-.324,0-.67-.011-1.042s-.011-.744-.011-1.122v-1.092c0-.35-.007-.668-.02-.951a2.156,2.156,0,0,0-.182-.869,1.279,1.279,0,0,0-.455-.516,2.257,2.257,0,0,0-.72-.293q-.423-.1-1.008-.181v-.122q.322,0,.726.009c.269.007.545.021.82.04s.55.038.819.051.52.021.751.021q.807,0,1.537-.041c.484-.027.923-.054,1.313-.08v.141a3.385,3.385,0,0,0-1.73.486,1.755,1.755,0,0,0-.556,1.335c-.013.228-.024.505-.029.828s-.011.7-.011,1.133l-.02,3.621q0,.951-.021,1.9c-.014.634-.025,1.227-.029,1.78s-.013,1.052-.022,1.5-.009.8-.009,1.072C918.69,517.87,918.687,518.035,918.679,518.23Z" transform="translate(-681.088 -500.196)" fill="#a5b9b9"/>
      </g>
      <g id="Group_18" data-name="Group 18" transform="translate(99.089 78.02)">
        <path id="Path_53" data-name="Path 53" d="M435.57,608.407v-2.628h-2.712v2.628h-1.064V602.6h1.064v2.327h2.712V602.6h1.064v5.81Z" transform="translate(-431.794 -602.451)" fill="#a5b9b9"/>
        <path id="Path_54" data-name="Path 54" d="M477.269,605.018a3.178,3.178,0,0,1-.239,1.241,3,3,0,0,1-1.66,1.646,3.377,3.377,0,0,1-2.474,0,3.069,3.069,0,0,1-1-.652,3.027,3.027,0,0,1-.667-.986,3.138,3.138,0,0,1-.243-1.241,2.743,2.743,0,0,1,.258-1.187,3.056,3.056,0,0,1,.69-.948,3.2,3.2,0,0,1,1-.628,3.242,3.242,0,0,1,2.385,0,3.247,3.247,0,0,1,1,.624,3.009,3.009,0,0,1,.689.943A2.752,2.752,0,0,1,477.269,605.018Zm-1.1.008a1.764,1.764,0,0,0-.162-.748,2.1,2.1,0,0,0-.439-.628,2.077,2.077,0,0,0-.648-.431,1.967,1.967,0,0,0-.786-.158,2,2,0,0,0-.79.158,2.06,2.06,0,0,0-.651.431,2.1,2.1,0,0,0-.439.628,1.78,1.78,0,0,0-.161.748,2.081,2.081,0,0,0,.161.82,2.109,2.109,0,0,0,.439.663,2.053,2.053,0,0,0,.647.443,1.935,1.935,0,0,0,.786.162,1.961,1.961,0,0,0,.79-.162,2.051,2.051,0,0,0,.651-.443,2.107,2.107,0,0,0,.439-.663A2.062,2.062,0,0,0,476.167,605.026Z" transform="translate(-460.763 -602.036)" fill="#a5b9b9"/>
        <path id="Path_55" data-name="Path 55" d="M516.237,603.507v4.9h-1.063v-4.893h-1.356V602.6h3.768v.91Z" transform="translate(-492.417 -602.451)" fill="#a5b9b9"/>
        <path id="Path_56" data-name="Path 56" d="M548.226,608.407V602.6h3.105v.91h-2.042v1.417h1.965v.917h-1.965v1.649h2.042v.917Z" transform="translate(-517.849 -602.451)" fill="#a5b9b9"/>
        <path id="Path_57" data-name="Path 57" d="M581.692,608.407V602.6h1.063v4.893h1.68v.917Z" transform="translate(-542.583 -602.451)" fill="#a5b9b9"/>
      </g>
      <g id="Group_19" data-name="Group 19" transform="translate(103.95 86.513)">
        <path id="Path_58" data-name="Path 58" d="M567.973,636.8l-2.085-.3-.936-1.89v0l-.089.182-.125.256-.559,1.134-.156.316-1.62.236-.461.068,1.5,1.47-.355,2.073,1.864-.98,1.865.983-.355-2.079Zm-3.044,1.941-1.1.579.211-1.224-.889-.866.273-.038.953-.14.094-.186.328-.67.074-.148.053-.11v0l0,0,.547,1.114,1.23.178-.89.866.21,1.224Z" transform="translate(-532.847 -634.604)" fill="#a5b9b9"/>
        <path id="Path_59" data-name="Path 59" d="M454.371,636.5l-.934-1.888-.212.436-.718,1.451-2.081.3,1.5,1.47-.355,2.071,1.863-.976,1.865.98-.355-2.075,1.509-1.472Z" transform="translate(-450.426 -634.604)" fill="#a5b9b9"/>
        <path id="Path_60" data-name="Path 60" d="M491.539,636.482l-.936-1.893-.213.441-.719,1.451-2.082.3,1.508,1.467-.358,2.077,1.867-.978,1.863.983-.356-2.082,1.508-1.469Z" transform="translate(-477.893 -634.59)" fill="#a5b9b9"/>
        <path id="Path_61" data-name="Path 61" d="M528.712,636.48l-.934-1.891-.213.441-.716,1.45-2.084.306,1.507,1.468-.355,2.074,1.862-.978,1.865.983-.359-2.079,1.514-1.47Z" transform="translate(-505.37 -634.59)" fill="#a5b9b9"/>
      </g>
    </g>
  </g>
</svg>
