<svg xmlns="http://www.w3.org/2000/svg" width="30.364" height="37.821" viewBox="0 0 30.364 37.821">
  <path id="Icon_map-car-rental" data-name="Icon map-car-rental" d="M29.52,2.88H15.9a6.358,6.358,0,0,0-4.861-2.7,5.885,5.885,0,0,0-5.967,5.87,5.815,5.815,0,0,0,5.967,5.787A6.182,6.182,0,0,0,16.569,7.92h1.984l1.438-1.439L21.428,7.92h.9l1.437-1.439L25.2,7.92h.9l1.438-1.439L28.971,7.92h.549v.2l-.125.03,2.837-2.781ZM9.1,7.639a1.728,1.728,0,1,1,1.729-1.727A1.728,1.728,0,0,1,9.1,7.639ZM30.96,21.6h-.4l-4.424-8.01a1.348,1.348,0,0,0-1.068-.63H11.65a1.348,1.348,0,0,0-1.068.63L6.157,21.6h-.4a1.444,1.444,0,0,0-1.44,1.44v7.2a1.444,1.444,0,0,0,1.44,1.44H7.2v2.16A2.166,2.166,0,0,0,9.36,36h.72a2.166,2.166,0,0,0,2.16-2.16V31.68H24.48v2.16A2.166,2.166,0,0,0,26.64,36h.72a2.166,2.166,0,0,0,2.16-2.16V31.68h1.44a1.444,1.444,0,0,0,1.44-1.44v-7.2a1.444,1.444,0,0,0-1.44-1.44ZM8.28,27.36a1.8,1.8,0,1,1,1.8-1.8A1.8,1.8,0,0,1,8.28,27.36ZM9.72,21.6l2.918-5.836a1.278,1.278,0,0,1,1.042-.644h9.36a1.278,1.278,0,0,1,1.042.644L27,21.6Zm18.72,5.76a1.8,1.8,0,1,1,1.8-1.8,1.8,1.8,0,0,1-1.8,1.8Z" transform="translate(-3.32 0.821)" fill="none" stroke="#237dbe" stroke-width="2"/>
</svg>
