<svg xmlns="http://www.w3.org/2000/svg" width="29.701" height="35.147" viewBox="0 0 29.701 35.147">
  <g id="Group_628" data-name="Group 628" transform="translate(-19.5 -200.642)">
    <path id="Path_163" data-name="Path 163" d="M217.444,335.623c-2,.069-3.613.4-4.906,1.7-3.242,3.261-2.117,8-1.5,9.553.193.482.761,2.791-1.14,2.791-2.026,0-1.332-2.309-1.138-2.791.618-1.55,1.743-6.292-1.5-9.553-1.293-1.3-2.908-1.635-4.906-1.7a6.465,6.465,0,0,0-6.812,6.241c0,2.527,1.484,4.925,4.436,5.175,2.17.184,4.449-.967,4.427-3.846a2.719,2.719,0,0,0-3.957-2.454c-2.422,1.456-.234,4.4,1.361,2.849a.841.841,0,0,1-.136.014.688.688,0,0,1-.767-.721.864.864,0,0,1,1.727,0,1.918,1.918,0,0,1-2.1,2.051c-2.24,0-2.518-2.254-2.331-3.068.688-2.993,4.036-3.1,5.375-2.41a3.767,3.767,0,0,1,2.281,3.53,9.982,9.982,0,0,1-1.8,5.449c-4.467,7.241.054,13.6,5.79,13.666v0h.1v0c5.738-.071,10.259-6.426,5.79-13.666a9.994,9.994,0,0,1-1.8-5.449,3.767,3.767,0,0,1,2.281-3.53c1.337-.688,4.687-.582,5.375,2.41.187.813-.091,3.068-2.331,3.068a1.917,1.917,0,0,1-2.1-2.051.864.864,0,0,1,1.727,0,.689.689,0,0,1-.768.721.852.852,0,0,1-.136-.014c1.6,1.552,3.784-1.393,1.361-2.849a2.718,2.718,0,0,0-3.956,2.454c-.024,2.879,2.257,4.029,4.426,3.846,2.953-.25,4.436-2.648,4.436-5.175A6.462,6.462,0,0,0,217.444,335.623Z" transform="translate(-175.55 -126.81)" fill="none" stroke="#fff" stroke-width="1"/>
    <path id="Path_164" data-name="Path 164" d="M389.387,194.072s1.167-2.5,5.038-2.942l.676-1.27-1.681-.133.822-2.365-2.211,1.143-.349-1.651-1.374.98-.9-2.356-.95,2.313-1.328-1.039-.423,1.633-2.212-1.244.771,2.4-1.687.057.726,1.523-.02,0A6.563,6.563,0,0,1,389.387,194.072Z" transform="translate(-355.053 16.52)" fill="none" stroke="#fff" stroke-width="1"/>
    <path id="Path_165" data-name="Path 165" d="M280.67,232.541a1.239,1.239,0,1,1-.363-.878A1.24,1.24,0,0,1,280.67,232.541Z" transform="translate(-254.442 -27.222)" fill="none" stroke="#fff" stroke-width="1"/>
    <path id="Path_168" data-name="Path 168" d="M693.611,232.541a1.24,1.24,0,1,1-.363-.878A1.24,1.24,0,0,1,693.611,232.541Z" transform="translate(-648.655 -27.222)" fill="none" stroke="#fff" stroke-width="1"/>
  </g>
</svg>
