<svg xmlns="http://www.w3.org/2000/svg" width="44" height="51.033" viewBox="0 0 44 51.033">
  <g id="Group_623" data-name="Group 623" transform="translate(-20 -202)">
    <path id="Path_163" data-name="Path 163" d="M229.115,335.625c-3.059.106-5.539.619-7.521,2.613-4.97,5-3.245,12.269-2.294,14.645.3.739,1.167,4.279-1.747,4.279-3.106,0-2.043-3.54-1.744-4.279.948-2.376,2.672-9.645-2.294-14.645-1.983-1.993-4.459-2.506-7.521-2.613-5.52-.193-10.443,4.053-10.443,9.567,0,3.873,2.276,7.551,6.8,7.934,3.326.282,6.82-1.482,6.786-5.9a4.168,4.168,0,0,0-6.067-3.762c-3.713,2.232-.358,6.748,2.086,4.368a1.286,1.286,0,0,1-.209.021,1.054,1.054,0,0,1-1.176-1.1,1.324,1.324,0,0,1,2.647-.008,2.941,2.941,0,0,1-3.218,3.144c-3.435,0-3.86-3.456-3.574-4.7,1.055-4.589,6.188-4.749,8.24-3.695a5.775,5.775,0,0,1,3.5,5.411c.076,2.753-.992,5.481-2.765,8.354-6.848,11.1.083,20.842,8.877,20.952v0h.148v0c8.8-.109,15.727-9.851,8.877-20.952-1.772-2.873-2.837-5.6-2.763-8.354a5.775,5.775,0,0,1,3.5-5.411c2.05-1.055,7.185-.892,8.24,3.695.287,1.247-.139,4.7-3.574,4.7a2.939,2.939,0,0,1-3.217-3.144,1.324,1.324,0,0,1,2.647.008,1.056,1.056,0,0,1-1.178,1.1,1.3,1.3,0,0,1-.209-.021c2.445,2.38,5.8-2.136,2.086-4.368a4.167,4.167,0,0,0-6.065,3.762c-.037,4.413,3.46,6.177,6.785,5.9,4.527-.383,6.8-4.06,6.8-7.934C239.553,339.678,234.629,335.432,229.115,335.625Z" transform="translate(-175.55 -123.18)" fill="#237dbe"/>
    <path id="Path_164" data-name="Path 164" d="M392.482,198.652s1.789-3.831,7.724-4.51l1.037-1.947-2.577-.2,1.26-3.625-3.39,1.753L396,187.589l-2.106,1.5-1.377-3.611-1.456,3.546-2.036-1.592-.649,2.5-3.391-1.906,1.182,3.679-2.587.087,1.112,2.335-.031.006C390.451,194.806,392.482,198.652,392.482,198.652Z" transform="translate(-350.507 16.52)" fill="#237dbe"/>
    <path id="Path_165" data-name="Path 165" d="M281.992,233.2a1.9,1.9,0,1,1-.556-1.346A1.9,1.9,0,0,1,281.992,233.2Z" transform="translate(-252.444 -26.114)" fill="#237dbe"/>
    <path id="Path_168" data-name="Path 168" d="M694.933,233.2a1.9,1.9,0,1,1-.557-1.346A1.9,1.9,0,0,1,694.933,233.2Z" transform="translate(-636.675 -26.114)" fill="#237dbe"/>
  </g>
</svg>
