<svg xmlns="http://www.w3.org/2000/svg" width="171.014" height="65.731" viewBox="0 0 171.014 65.731">
  <g id="Group_546" data-name="Group 546" transform="translate(1500.014 155)">
    <g id="Group_16" data-name="Group 16" transform="translate(-1426.718 -155)">
      <path id="Path_31" data-name="Path 31" d="M464.938,350.97a5.709,5.709,0,0,0-4.172,1.45c-2.759,2.775-1.8,6.809-1.274,8.128.164.41.646,2.375-.971,2.375-1.723,0-1.133-1.964-.969-2.375.529-1.318,1.484-5.353-1.274-8.128a5.711,5.711,0,0,0-4.173-1.45,5.5,5.5,0,0,0-5.793,5.309,4.132,4.132,0,0,0,3.776,4.4c1.844.156,3.784-.822,3.765-3.272a2.313,2.313,0,0,0-3.367-2.087c-2.06,1.239-.2,3.745,1.159,2.424a.7.7,0,0,1-.117.012.585.585,0,0,1-.653-.613.736.736,0,0,1,1.471,0,1.633,1.633,0,0,1-1.787,1.745,2.1,2.1,0,0,1-1.985-2.61c.588-2.546,3.436-2.635,4.573-2.05a3.2,3.2,0,0,1,1.942,3,8.489,8.489,0,0,1-1.534,4.636c-3.8,6.16.044,11.566,4.927,11.627v0l.04,0,.041,0v0c4.881-.061,8.727-5.467,4.926-11.627a8.5,8.5,0,0,1-1.533-4.636,3.2,3.2,0,0,1,1.94-3c1.138-.585,3.988-.5,4.574,2.05a2.1,2.1,0,0,1-1.985,2.61,1.63,1.63,0,0,1-1.785-1.745.735.735,0,0,1,1.469,0,.586.586,0,0,1-.653.613.677.677,0,0,1-.116-.012c1.357,1.321,3.22-1.185,1.159-2.424a2.313,2.313,0,0,0-3.367,2.087c-.019,2.45,1.921,3.428,3.766,3.272a4.132,4.132,0,0,0,3.775-4.4A5.5,5.5,0,0,0,464.938,350.97Z" transform="translate(-446.311 -342.049)" fill="#237dbe"/>
      <g id="Group_15" data-name="Group 15" transform="translate(3.189)">
        <g id="Group_13" data-name="Group 13" transform="translate(4.067 3.125)">
          <path id="Path_32" data-name="Path 32" d="M490.284,327.118s.992-2.126,4.285-2.5l.577-1.081-1.433-.113.7-2.011-1.882.973-.3-1.4-1.167.834-.763-2-.808,1.968-1.131-.884L488,322.282l-1.881-1.058.654,2.041-1.435.048.618,1.3-.016,0A5.582,5.582,0,0,1,490.284,327.118Z" transform="translate(-485.342 -319.809)" fill="#237dbe"/>
        </g>
        <g id="Group_14" data-name="Group 14">
          <path id="Path_33" data-name="Path 33" d="M465.576,330.373a1.055,1.055,0,1,1-1.055-1.056A1.055,1.055,0,0,1,465.576,330.373Z" transform="translate(-463.465 -324.424)" fill="#237dbe"/>
          <path id="Path_34" data-name="Path 34" d="M482.624,310.854a1.055,1.055,0,1,1-1.054-1.055A1.055,1.055,0,0,1,482.624,310.854Z" transform="translate(-477.346 -308.534)" fill="#237dbe"/>
          <path id="Path_35" data-name="Path 35" d="M533.817,310.854a1.055,1.055,0,1,1-1.054-1.055A1.055,1.055,0,0,1,533.817,310.854Z" transform="translate(-519.023 -308.534)" fill="#237dbe"/>
          <path id="Path_36" data-name="Path 36" d="M551.292,330.373a1.055,1.055,0,1,1-1.055-1.056A1.056,1.056,0,0,1,551.292,330.373Z" transform="translate(-533.248 -324.424)" fill="#237dbe"/>
          <path id="Path_37" data-name="Path 37" d="M508.61,304.051A1.055,1.055,0,1,1,507.554,303,1.054,1.054,0,0,1,508.61,304.051Z" transform="translate(-498.5 -302.996)" fill="#237dbe"/>
        </g>
      </g>
    </g>
    <g id="Group_17" data-name="Group 17" transform="translate(-1500.014 -120.314)">
      <path id="Path_38" data-name="Path 38" d="M63.833,512.317l-.635-.05c-.192-.014-.412-.026-.663-.036s-.514-.015-.792-.015q-.333,0-.7.015t-.714.036c-.23.014-.447.027-.648.036s-.374.014-.519.014v-.1a1.635,1.635,0,0,0,1.016-.4q.239-.288-.007-.995-.129-.331-.281-.763c-.1-.289-.2-.562-.3-.821s-.206-.567-.332-.923l-1.729-.029-1.657.029q-.23.635-.381,1.031t-.288.764c-.093.245-.147.405-.167.483-.048.154-.093.3-.136.447a1.313,1.313,0,0,0-.066.36.651.651,0,0,0,.1.368.793.793,0,0,0,.26.245,1.357,1.357,0,0,0,.353.144,2.139,2.139,0,0,0,.382.065v.1c-.058,0-.181,0-.368-.014s-.386-.022-.6-.036-.411-.026-.6-.036-.31-.015-.367-.015c-.021,0-.115,0-.289.015l-.6.036q-.34.021-.656.036t-.461.014v-.1a4.039,4.039,0,0,0,.793-.216,1.877,1.877,0,0,0,.546-.338,1.955,1.955,0,0,0,.4-.526,7.35,7.35,0,0,0,.361-.778q.115-.288.433-1.06t.734-1.773q.417-1,.866-2.082t.82-1.989q.376-.908.864-2.075h.117l3.819,9.036a3.7,3.7,0,0,0,.8,1.232,2,2,0,0,0,1.275.569Zm-6.241-8.243a.425.425,0,0,1-.029-.086c-.01-.038-.024-.057-.043-.057s-.043.019-.043.057l-1.442,3.791,1.457.043,1.6-.043Z" transform="translate(-52 -499.188)" fill="#fff"/>
      <path id="Path_39" data-name="Path 39" d="M122.845,512.413a2.034,2.034,0,0,0,.072.547,1.07,1.07,0,0,0,.244.448,1.125,1.125,0,0,0,.461.288,1.828,1.828,0,0,0,.722.073q.445-.029.647-.029h.3c.077,0,.152,0,.224-.007s.2-.012.383-.022a3.34,3.34,0,0,0,.654-.108,1.394,1.394,0,0,0,.511-.266,1.777,1.777,0,0,0,.418-.519,5.68,5.68,0,0,0,.375-.851l.115.058-.388,1.858a.933.933,0,0,1-.168.368c-.08.11-.26.161-.54.151l-3.719-.115-3.631.115v-.115c.288-.038.54-.081.757-.13a1.707,1.707,0,0,0,.54-.209.913.913,0,0,0,.332-.367,1.527,1.527,0,0,0,.129-.62q.015-.3.014-.922v-5.217c0-.278,0-.543-.008-.792s-.012-.476-.021-.678a1.531,1.531,0,0,0-.13-.619.936.936,0,0,0-.324-.368,1.633,1.633,0,0,0-.52-.209c-.206-.048-.444-.091-.712-.129v-.087c.153,0,.341,0,.562.007s.448.015.683.029.463.027.682.036.41.015.573.015c.19,0,.4,0,.615-.008s.44-.012.661-.022.43-.019.626-.029.369-.019.512-.028v.1a2.41,2.41,0,0,0-1.232.346,1.243,1.243,0,0,0-.4.951c-.01.163-.016.36-.023.59s-.006.5-.006.807l-.015,2.911c0,.115,0,.283.007.5s.008.466.008.735,0,.524.006.793.008.514.008.735Z" transform="translate(-106.977 -501.272)" fill="#fff"/>
      <path id="Path_40" data-name="Path 40" d="M173.676,514.373q-.324-.015-.685-.021l-.709-.014c-.232-.005-.439-.008-.624-.008s-.372,0-.6.008l-.672.014c-.225,0-.447.011-.663.021s-.4.02-.554.029v-.086q.4-.057.712-.13a1.538,1.538,0,0,0,.512-.209.951.951,0,0,0,.316-.368,1.551,1.551,0,0,0,.131-.619c.008-.2.013-.509.013-.923v-5.246c0-.278,0-.543-.007-.792s-.013-.476-.021-.678a1.525,1.525,0,0,0-.129-.619.94.94,0,0,0-.326-.368,1.621,1.621,0,0,0-.519-.209c-.206-.048-.446-.091-.712-.129v-.087c.152,0,.34,0,.562.007s.449.015.684.029.463.027.688.036.415.015.58.015c.195,0,.4,0,.626-.008s.444-.012.664-.022.431-.019.628-.029.367-.019.512-.028v.1a2.4,2.4,0,0,0-1.233.346,1.24,1.24,0,0,0-.4.951c-.008.163-.016.36-.021.59s-.008.5-.008.807l-.014,2.58.014,2.119v.937a6.715,6.715,0,0,0,.028.721,1.82,1.82,0,0,0,.115.5.864.864,0,0,0,.283.346,1.526,1.526,0,0,0,.525.23,5.054,5.054,0,0,0,.851.13v.1C174.076,514.393,173.891,514.383,173.676,514.373Z" transform="translate(-147.369 -501.272)" fill="#fff"/>
      <path id="Path_41" data-name="Path 41" d="M207.87,512.317l-.634-.05c-.191-.014-.413-.026-.662-.036s-.514-.015-.794-.015c-.22,0-.454,0-.7.015s-.484.022-.713.036-.447.027-.65.036-.374.014-.517.014v-.1a1.639,1.639,0,0,0,1.015-.4q.237-.288-.008-.995c-.086-.221-.179-.475-.281-.763s-.2-.562-.294-.821-.209-.567-.333-.923l-1.729-.029-1.657.029q-.23.635-.38,1.031t-.289.764c-.093.245-.147.405-.166.483-.048.154-.094.3-.137.447a1.286,1.286,0,0,0-.064.36.638.638,0,0,0,.1.368.785.785,0,0,0,.259.245,1.367,1.367,0,0,0,.353.144,2.13,2.13,0,0,0,.383.065v.1c-.059,0-.18,0-.369-.014s-.386-.022-.6-.036-.412-.026-.6-.036-.311-.015-.367-.015c-.021,0-.117,0-.289.015l-.6.036c-.225.014-.444.027-.655.036s-.366.014-.463.014v-.1a3.957,3.957,0,0,0,.792-.216,1.874,1.874,0,0,0,.549-.338,2.024,2.024,0,0,0,.4-.526,7.765,7.765,0,0,0,.359-.778q.115-.288.433-1.06t.736-1.773q.417-1,.864-2.082t.823-1.989q.374-.908.864-2.075h.115l3.819,9.036a3.759,3.759,0,0,0,.8,1.232,2.005,2.005,0,0,0,1.276.569Zm-6.241-8.243a.6.6,0,0,1-.027-.086c-.01-.038-.026-.057-.043-.057s-.043.019-.043.057l-1.442,3.791,1.454.043,1.6-.043Z" transform="translate(-169.263 -499.188)" fill="#fff"/>
      <path id="Path_42" data-name="Path 42" d="M243.264,492.707a1.238,1.238,0,0,0-.4.951c-.009.163-.016.36-.022.59s-.006.5-.006.807l-.015,2.58q0,.678-.014,1.355t-.023,1.268c0,.394-.009.749-.012,1.067s-.008.572-.008.764c0,.1,0,.214-.008.353s-.008.252-.008.339v.144l-.171.043q-2.033-2.177-4.028-4.324t-4.03-4.309l-.107-.108a1.486,1.486,0,0,1-.107-.123c-.011.125-.016.25-.016.375v.577l-.015,2.58.015,2.119v.937a6.257,6.257,0,0,0,.03.72,1.667,1.667,0,0,0,.115.5.826.826,0,0,0,.279.346,1.532,1.532,0,0,0,.527.23,5.04,5.04,0,0,0,.849.13v.1q-.46-.029-1.044-.05t-1.131-.022q-.506,0-1.118.022c-.409.014-.765.031-1.074.05v-.086c.28-.038.521-.082.722-.13a1.6,1.6,0,0,0,.511-.209.894.894,0,0,0,.318-.368,1.634,1.634,0,0,0,.121-.619c.011-.2.017-.512.024-.93s0-.862,0-1.333,0-.937,0-1.369-.008-.764-.008-.995V494c0-.308-.005-.567-.016-.779q-.46-.446-.915-.828a11.388,11.388,0,0,0-.915-.7,8.089,8.089,0,0,0-1.563-.815,4.657,4.657,0,0,0-1.723-.338,6.734,6.734,0,0,0-.763.043,5.329,5.329,0,0,0-.794.159,4.753,4.753,0,0,0-.785.281,6.774,6.774,0,0,0-.757.425l-.07-.057a2.464,2.464,0,0,1,.251-.246c.1-.086.207-.17.318-.252l.3-.224a1.549,1.549,0,0,1,.223-.144,6.522,6.522,0,0,1,3.214-.937,5.065,5.065,0,0,1,1.578.252,7.87,7.87,0,0,1,1.5.677,11.139,11.139,0,0,1,1.4.98q.675.555,1.3,1.16t1.2,1.225c.383.414.751.8,1.1,1.167q.462.49,1.038,1.124t1.19,1.311q.611.678,1.2,1.333c.388.438.733.829,1.029,1.174h.015c.021,0,.03-.009.03-.028v-.39q0-.346-.008-.843c0-.331-.011-.682-.014-1.052s-.008-.709-.008-1.017v-1.542q0-.4-.007-.778c0-.25-.013-.476-.022-.678a1.535,1.535,0,0,0-.129-.619.929.929,0,0,0-.324-.368,1.611,1.611,0,0,0-.513-.209c-.2-.048-.44-.091-.72-.129v-.087c.153,0,.327,0,.519.007s.386.015.584.029.391.027.583.036.37.015.533.015q.591,0,1.1-.029t.929-.057v.1A2.4,2.4,0,0,0,243.264,492.707Z" transform="translate(-192.934 -489.594)" fill="#fff"/>
      <path id="Path_43" data-name="Path 43" d="M340.393,503.6l-.115-.029a1.371,1.371,0,0,0-.31-1.174,1.9,1.9,0,0,0-1.19-.324l-2.348-.029v1.484c0,.423,0,.889-.007,1.4s-.008.994-.008,1.455v3.459a6.707,6.707,0,0,0,.029.72,1.719,1.719,0,0,0,.115.5.848.848,0,0,0,.281.346,1.536,1.536,0,0,0,.527.23,5.062,5.062,0,0,0,.849.13v.1c-.153-.009-.338-.019-.554-.029s-.446-.017-.685-.021l-.707-.014q-.345-.008-.618-.008c-.174,0-.37,0-.592.008l-.669.014c-.225,0-.447.012-.664.021s-.4.02-.554.029v-.086c.278-.038.519-.082.72-.13a1.569,1.569,0,0,0,.511-.209.871.871,0,0,0,.318-.368,1.589,1.589,0,0,0,.123-.619c.009-.192.016-.492.022-.9s.006-.844.006-1.3v-4.568c0-.3,0-.57-.006-.815s-.008-.444-.008-.6v-.23l-2.335.029a2.752,2.752,0,0,0-.7.072,1.1,1.1,0,0,0-.454.238,1.849,1.849,0,0,0-.346.426q-.158.259-.375.634l-.1-.072c0-.029.032-.174.094-.433s.129-.537.2-.836.17-.691.294-1.181l.086-.087a.821.821,0,0,0,.318.331,1.9,1.9,0,0,0,.425.18,2.444,2.444,0,0,0,.461.087c.158.014.3.022.411.022l2.869.072,3.3-.072c.335-.009.605-.026.806-.05a2.04,2.04,0,0,0,.49-.108.743.743,0,0,0,.275-.166,1.071,1.071,0,0,0,.157-.224l.117.057Z" transform="translate(-278.772 -498.747)" fill="#fff"/>
      <path id="Path_44" data-name="Path 44" d="M402.774,514.373c-.217-.01-.444-.017-.687-.021l-.705-.014c-.23-.005-.437-.008-.621-.008s-.371,0-.591.008l-.672.014c-.227,0-.447.011-.663.021s-.4.02-.557.029v-.086q.4-.057.711-.13a1.533,1.533,0,0,0,.509-.209.961.961,0,0,0,.315-.368,1.528,1.528,0,0,0,.129-.619q.014-.216.014-.663v-3.185h-5.579v.663l.014,1.628v.937a6.246,6.246,0,0,0,.03.721,1.72,1.72,0,0,0,.115.5.85.85,0,0,0,.281.346,1.542,1.542,0,0,0,.525.23,5.1,5.1,0,0,0,.851.13v.1c-.155-.009-.339-.019-.554-.029s-.445-.017-.685-.021l-.709-.014c-.231-.005-.441-.008-.624-.008s-.373,0-.6.008l-.672.014c-.227,0-.447.011-.664.021s-.4.02-.554.029v-.086q.4-.057.714-.13a1.51,1.51,0,0,0,.511-.209.95.95,0,0,0,.316-.368,1.525,1.525,0,0,0,.131-.619c.01-.2.014-.509.014-.923v-5.246c0-.278,0-.543-.008-.792s-.011-.476-.021-.678a1.531,1.531,0,0,0-.13-.619.931.931,0,0,0-.325-.368,1.607,1.607,0,0,0-.519-.209c-.206-.048-.444-.091-.712-.129v-.087c.153,0,.34,0,.562.007s.449.015.685.029.463.027.686.036.417.015.581.015c.193,0,.4,0,.624-.008s.444-.012.666-.022.43-.019.626-.029.369-.019.513-.028v.1a2.4,2.4,0,0,0-1.233.347,1.249,1.249,0,0,0-.4.954c-.009.164-.017.362-.022.593s-.008.5-.008.809l-.014,1.895,2.66.028,2.919-.014v-1.778q0-.419-.008-.817c0-.265-.011-.5-.021-.7a1.535,1.535,0,0,0-.129-.621.933.933,0,0,0-.322-.368,1.6,1.6,0,0,0-.516-.21c-.206-.048-.442-.091-.711-.13v-.087c.155,0,.342,0,.564.007s.45.015.685.029.465.027.686.036.414.015.576.015c.193,0,.4,0,.621-.008s.442-.012.664-.022.429-.019.628-.029.366-.019.511-.028v.1a2.4,2.4,0,0,0-1.233.346,1.243,1.243,0,0,0-.4.951c-.01.163-.018.36-.021.59s-.008.5-.008.807l-.016,2.58.016,2.119v.937a6.689,6.689,0,0,0,.029.721,1.657,1.657,0,0,0,.115.5.846.846,0,0,0,.281.346,1.511,1.511,0,0,0,.525.23,5.1,5.1,0,0,0,.851.13v.1C403.174,514.393,402.989,514.383,402.774,514.373Z" transform="translate(-328.072 -501.272)" fill="#fff"/>
      <path id="Path_45" data-name="Path 45" d="M473.211,510.256a5.341,5.341,0,0,1-1.21,1.787,5.681,5.681,0,0,1-1.846,1.189,6.128,6.128,0,0,1-2.32.432,5.917,5.917,0,0,1-2.342-.447,5.485,5.485,0,0,1-1.779-1.2,5.245,5.245,0,0,1-1.132-1.744,5.6,5.6,0,0,1-.014-4.1,5.285,5.285,0,0,1,1.118-1.758,5.578,5.578,0,0,1,1.815-1.247,6.1,6.1,0,0,1,2.478-.476,6.634,6.634,0,0,1,2.264.375,5.276,5.276,0,0,1,1.793,1.067,4.847,4.847,0,0,1,1.183,1.672,5.507,5.507,0,0,1,.423,2.206A5.754,5.754,0,0,1,473.211,510.256Zm-1.571-1.932a6.868,6.868,0,0,0-.288-2.02,5.239,5.239,0,0,0-.814-1.63,4,4,0,0,0-1.253-1.1,3.293,3.293,0,0,0-1.622-.4,2.984,2.984,0,0,0-1.383.325,3.182,3.182,0,0,0-1.1.931,4.659,4.659,0,0,0-.73,1.48,6.814,6.814,0,0,0-.265,1.984,7.033,7.033,0,0,0,.294,2.071,5.559,5.559,0,0,0,.822,1.674,3.831,3.831,0,0,0,1.276,1.118,3.441,3.441,0,0,0,1.657.4,2.9,2.9,0,0,0,1.239-.281,3.048,3.048,0,0,0,1.081-.866,4.593,4.593,0,0,0,.771-1.5,7.187,7.187,0,0,0,.3-2.187Z" transform="translate(-385.939 -500.261)" fill="#fff"/>
      <path id="Path_46" data-name="Path 46" d="M540.182,512.047a2.888,2.888,0,0,1-.821.965,3.544,3.544,0,0,1-1.172.569,5,5,0,0,1-1.367.187,4,4,0,0,1-1.509-.3,4.966,4.966,0,0,1-1.338-.8c.039-.356.067-.687.086-.995s.038-.672.059-1.1h.1a2.994,2.994,0,0,0,.85,2.032,2.694,2.694,0,0,0,1.9.677,1.939,1.939,0,0,0,.794-.159,2.011,2.011,0,0,0,.62-.418,1.776,1.776,0,0,0,.4-.6,1.908,1.908,0,0,0,.136-.707,1.98,1.98,0,0,0-.087-.613,1.827,1.827,0,0,0-.273-.519,3.093,3.093,0,0,0-.492-.5c-.2-.167-.441-.353-.72-.554-.337-.25-.679-.49-1.03-.721a6.471,6.471,0,0,1-.952-.757,3.539,3.539,0,0,1-.691-.929,2.656,2.656,0,0,1-.267-1.225,2.38,2.38,0,0,1,.232-1.045,2.41,2.41,0,0,1,.655-.835,3.282,3.282,0,0,1,1.023-.562,4.021,4.021,0,0,1,1.333-.209c.173,0,.365.009.576.029a6.263,6.263,0,0,1,.641.093,5.253,5.253,0,0,1,.627.166,2.09,2.09,0,0,1,.533.259q-.014.5.023,1.023c.024.346.044.687.064,1.023l-.13.043a3.154,3.154,0,0,0-.353-1.117,2.352,2.352,0,0,0-.584-.7,1.981,1.981,0,0,0-.691-.36,2.553,2.553,0,0,0-.692-.1,1.711,1.711,0,0,0-.7.144,1.836,1.836,0,0,0-.562.382,1.744,1.744,0,0,0-.375.562,1.78,1.78,0,0,0-.136.7,1.4,1.4,0,0,0,.1.547,1.711,1.711,0,0,0,.3.476,3.744,3.744,0,0,0,.489.461c.19.154.407.317.645.49.335.24.684.483,1.042.728a8.268,8.268,0,0,1,.992.792,3.9,3.9,0,0,1,.739.937,2.354,2.354,0,0,1,.288,1.174A2.871,2.871,0,0,1,540.182,512.047Z" transform="translate(-444.383 -500.452)" fill="#fff"/>
      <path id="Path_47" data-name="Path 47" d="M606.936,508.985a1.215,1.215,0,0,0-.4.944q-.014.2-.014.605v2.608a1.639,1.639,0,0,1-.332.123c-.153.043-.323.086-.5.129s-.366.082-.548.115-.337.06-.462.079c-.241.029-.509.063-.806.1a7.973,7.973,0,0,1-.995.058,7.893,7.893,0,0,1-2.292-.339,6.189,6.189,0,0,1-2.012-1.023,5.083,5.083,0,0,1-1.981-4.173,4.7,4.7,0,0,1,.533-2.262,5.351,5.351,0,0,1,1.407-1.687,6.247,6.247,0,0,1,1.981-1.052,7.234,7.234,0,0,1,2.248-.36c.125,0,.307,0,.548.007a7.659,7.659,0,0,1,.806.063c.3.037.612.088.946.154a4.524,4.524,0,0,1,.942.295l.447,2.335-.173.029a2.852,2.852,0,0,0-.439-.959,3.288,3.288,0,0,0-.758-.763,3.475,3.475,0,0,0-1.03-.5,4.25,4.25,0,0,0-1.26-.18,3.922,3.922,0,0,0-1.7.368,4.086,4.086,0,0,0-1.333,1,4.583,4.583,0,0,0-.865,1.465,5.083,5.083,0,0,0-.309,1.775,6.067,6.067,0,0,0,.3,1.854,5.1,5.1,0,0,0,.9,1.681,4.63,4.63,0,0,0,1.528,1.22,4.754,4.754,0,0,0,2.176.469c.125,0,.262-.007.411-.022s.294-.031.432-.05.262-.039.368-.058a.883.883,0,0,0,.215-.058c.021-.49.029-.879.029-1.167v-1.21c0-.25,0-.447-.013-.591a1.578,1.578,0,0,0-.131-.627.966.966,0,0,0-.324-.382,1.6,1.6,0,0,0-.517-.224,6.892,6.892,0,0,0-.716-.137v-.114c.155,0,.342,0,.562.007s.451.014.685.029.463.026.685.036.414.015.577.015c.192,0,.4,0,.619-.007s.443-.012.663-.022.431-.018.628-.028.367-.019.51-.028v.114A2.545,2.545,0,0,0,606.936,508.985Z" transform="translate(-495.362 -500.388)" fill="#fff"/>
      <path id="Path_48" data-name="Path 48" d="M666.657,512.317l-.636-.05c-.191-.014-.412-.026-.662-.036s-.515-.015-.792-.015q-.333,0-.7.015c-.244.01-.484.022-.713.036s-.447.027-.648.036-.375.014-.519.014v-.1a1.635,1.635,0,0,0,1.015-.4q.238-.288-.006-.995c-.086-.221-.181-.475-.281-.763s-.2-.562-.3-.821-.206-.567-.332-.923l-1.73-.029-1.657.029q-.23.635-.382,1.031t-.289.764c-.091.245-.147.405-.164.483-.05.154-.094.3-.137.447a1.315,1.315,0,0,0-.066.36.651.651,0,0,0,.1.368.776.776,0,0,0,.26.245,1.373,1.373,0,0,0,.353.144,2.138,2.138,0,0,0,.382.065v.1c-.058,0-.181,0-.367-.014s-.386-.022-.6-.036-.411-.026-.6-.036-.309-.015-.368-.015l-.288.015-.6.036q-.34.021-.656.036c-.213.01-.366.014-.461.014v-.1a4.077,4.077,0,0,0,.793-.216,1.858,1.858,0,0,0,.546-.338,1.957,1.957,0,0,0,.4-.526,7.833,7.833,0,0,0,.361-.778q.115-.288.431-1.06t.736-1.773q.417-1,.865-2.082t.821-1.989q.376-.908.864-2.075h.117l3.819,9.036a3.726,3.726,0,0,0,.8,1.232,2.006,2.006,0,0,0,1.278.569Zm-6.242-8.243a.489.489,0,0,1-.029-.086c-.009-.038-.024-.057-.043-.057s-.043.019-.043.057l-1.442,3.791,1.456.043,1.6-.043Z" transform="translate(-542.768 -499.188)" fill="#fff"/>
      <path id="Path_49" data-name="Path 49" d="M738.907,516.369a2.827,2.827,0,0,1-.707.375,6.244,6.244,0,0,1-.87.259,8.867,8.867,0,0,1-.9.151,7.265,7.265,0,0,1-.792.05,6.01,6.01,0,0,1-1.969-.31,6.7,6.7,0,0,1-1.663-.843,7.91,7.91,0,0,1-1.4-1.247,15.738,15.738,0,0,1-1.189-1.52c-.368-.538-.714-1.1-1.029-1.672s-.62-1.138-.909-1.686a3.413,3.413,0,0,1-.576.094,4.48,4.48,0,0,1-.763.007v2.407a6.725,6.725,0,0,0,.028.72,1.665,1.665,0,0,0,.116.5.834.834,0,0,0,.28.346,1.523,1.523,0,0,0,.527.23,5.038,5.038,0,0,0,.851.13v.1c-.155-.009-.338-.019-.557-.029s-.444-.017-.683-.021L726,514.4c-.232-.005-.438-.008-.622-.008s-.368,0-.59.008l-.669.014q-.338.007-.664.021c-.216.01-.4.02-.554.029v-.086q.4-.057.713-.13a1.51,1.51,0,0,0,.511-.209.939.939,0,0,0,.318-.368,1.525,1.525,0,0,0,.129-.619c.01-.192.016-.49.016-.894v-1.989c0-.24,0-.471-.01-.692s-.007-.423-.007-.605v-2.753q0-.375-.014-.677a1.733,1.733,0,0,0-.115-.619.834.834,0,0,0-.3-.367,1.523,1.523,0,0,0-.5-.209c-.2-.048-.434-.091-.713-.129v-.1c.614,0,1.117.009,1.505.028s.7.029.943.029q.42,0,.837-.022c.28-.015.558-.022.836-.022a8.38,8.38,0,0,1,1.341.115,4.762,4.762,0,0,1,1.3.4,2.751,2.751,0,0,1,.995.8,2.07,2.07,0,0,1,.4,1.3,2.168,2.168,0,0,1-.174.857,2.851,2.851,0,0,1-.468.757,3.9,3.9,0,0,1-.683.627,4.4,4.4,0,0,1-.823.468q.4.735.878,1.557t1.039,1.628a15.935,15.935,0,0,0,1.219,1.542,9.361,9.361,0,0,0,1.411,1.3,6.769,6.769,0,0,0,1.623.894,5.049,5.049,0,0,0,1.828.331,4.535,4.535,0,0,0,.96-.1,8.269,8.269,0,0,0,.929-.259Zm-9.706-10.4a2.608,2.608,0,0,0-.734-.887,2.983,2.983,0,0,0-1.037-.5,4.513,4.513,0,0,0-1.19-.159l-.1.144v2.2l-.015,2.292v.591a4.383,4.383,0,0,0,1.218-.2,4.336,4.336,0,0,0,1.073-.5,2.7,2.7,0,0,0,.771-.742,1.629,1.629,0,0,0,.3-.937A2.777,2.777,0,0,0,729.2,505.971Z" transform="translate(-598.186 -501.337)" fill="#fff"/>
      <path id="Path_50" data-name="Path 50" d="M793.125,511.271a5.018,5.018,0,0,1-1.325,1.708,5.836,5.836,0,0,1-1.955,1.052,7.6,7.6,0,0,1-2.355.36,13.7,13.7,0,0,1-1.441-.079,13.768,13.768,0,0,0-1.442-.08h-.517c-.222,0-.452,0-.692.008l-.7.014c-.225.005-.417.013-.57.022v-.115c.268-.039.509-.081.722-.13a1.58,1.58,0,0,0,.531-.216,1,1,0,0,0,.339-.375,1.4,1.4,0,0,0,.138-.606c.008-.133.013-.316.013-.547s0-.5.008-.793.006-.591.006-.908,0-.636-.006-.929-.008-.565-.008-.814v-2.148c0-.278,0-.543-.006-.792s-.013-.476-.022-.678a1.409,1.409,0,0,0-.129-.576,1,1,0,0,0-.316-.375,1.535,1.535,0,0,0-.512-.224,6.6,6.6,0,0,0-.714-.137v-.1l2.449.057a9.858,9.858,0,0,0,1.1-.036q.613-.05,1.262-.05a11.3,11.3,0,0,1,2.463.267,6.3,6.3,0,0,1,2.119.872,4.574,4.574,0,0,1,1.485,1.593,4.838,4.838,0,0,1,.562,2.428A5.3,5.3,0,0,1,793.125,511.271Zm-1.808-4.078a4.911,4.911,0,0,0-1.215-1.585,5.608,5.608,0,0,0-1.747-1.017,5.969,5.969,0,0,0-2.064-.36,1.7,1.7,0,0,0-.6.094c-.168.062-.253.228-.253.5q0,.634-.014,1.506t-.014,1.852v3.372q0,.764.014,1.124a1.682,1.682,0,0,0,.267.649,1.236,1.236,0,0,0,.453.382,1.982,1.982,0,0,0,.61.187,4.9,4.9,0,0,0,.726.05,4.729,4.729,0,0,0,1.854-.338,3.631,3.631,0,0,0,1.346-.951,4.071,4.071,0,0,0,.811-1.477,6.349,6.349,0,0,0,.275-1.917A4.656,4.656,0,0,0,791.318,507.193Z" transform="translate(-646.409 -501.146)" fill="#fff"/>
      <path id="Path_51" data-name="Path 51" d="M860.554,512.527a.656.656,0,0,1-.136.281.393.393,0,0,1-.281.079l-4.323-.072-2.638.072v-.115a6.808,6.808,0,0,0,.706-.13,1.46,1.46,0,0,0,.484-.209.869.869,0,0,0,.3-.368,1.741,1.741,0,0,0,.115-.621q.015-.3.014-.924v-5.21c0-.269,0-.529-.008-.779s-.011-.477-.021-.679a1.738,1.738,0,0,0-.115-.621.863.863,0,0,0-.3-.368,1.436,1.436,0,0,0-.49-.209,7.121,7.121,0,0,0-.714-.13v-.115c.21.019.471.034.779.043l.95.029c.327.01.645.015.95.015h.793l2.148-.015h.635a2.6,2.6,0,0,0,.453-.034.889.889,0,0,0,.325-.118.759.759,0,0,0,.23-.251l.1.071a3.424,3.424,0,0,0-.108.678c-.017.231-.032.4-.052.5s-.019.212-.028.346-.016.269-.021.4-.011.262-.015.382-.008.219-.008.295h-.129a2.048,2.048,0,0,0-.49-1.253,1.763,1.763,0,0,0-1.282-.476l-.75-.015h-1.268v4.122c.105,0,.3,0,.57-.007s.549-.007.827-.007.654-.005,1.1-.015a1.4,1.4,0,0,0,.469-.065.78.78,0,0,0,.483-.44c.048-.1.1-.22.144-.345.019,0,.047.019.086.057-.017.1-.035.2-.049.324s-.028.241-.043.361-.027.235-.037.345-.014.2-.014.281v.36c0,.125,0,.25.008.375s.006.24.006.346v.245l-.129-.015c-.01-.124-.027-.259-.05-.4a1.118,1.118,0,0,0-.145-.4.864.864,0,0,0-.318-.3,1.078,1.078,0,0,0-.554-.123l-2.348-.043v1.714c0,.183,0,.368.008.555s.007.368.007.541v.417a2.665,2.665,0,0,0,.072.67,1.031,1.031,0,0,0,.252.468.97.97,0,0,0,.5.259,3.366,3.366,0,0,0,.814.058c.134-.009.24-.015.316-.015s.15,0,.217-.007.135-.013.209-.022.171-.02.3-.029a2.941,2.941,0,0,0,.584-.136,1.435,1.435,0,0,0,.489-.3,2.242,2.242,0,0,0,.424-.54,5.09,5.09,0,0,0,.391-.858l.115.058Z" transform="translate(-704.226 -499.758)" fill="#fff"/>
      <path id="Path_52" data-name="Path 52" d="M914.215,514.121c0,.139-.008.252-.014.339s-.006.134-.006.144l-.158.043-.383-.4q-.366-.381-1.009-1.052l-1.412-1.478q-.77-.806-1.614-1.678t-1.6-1.658q-.757-.785-1.361-1.419l-.91-.951v.72l-.013,2.58.013,2.119v.937a6.283,6.283,0,0,0,.03.721,1.71,1.71,0,0,0,.115.5.844.844,0,0,0,.281.346,1.519,1.519,0,0,0,.527.23,5.038,5.038,0,0,0,.85.13v.1c-.308-.019-.656-.036-1.046-.05s-.767-.022-1.13-.022q-.5,0-1.118.022c-.407.014-.767.031-1.073.05v-.086c.278-.038.519-.082.72-.13a1.628,1.628,0,0,0,.513-.209.876.876,0,0,0,.316-.368,1.59,1.59,0,0,0,.122-.619c.01-.2.015-.509.015-.923v-5.246c0-.278,0-.543-.008-.792s-.011-.476-.021-.678a1.528,1.528,0,0,0-.129-.619.914.914,0,0,0-.326-.368,1.609,1.609,0,0,0-.511-.209c-.2-.048-.44-.091-.72-.129v-.087c.259.019.473.034.642.043s.319.014.454.014.261,0,.381-.007.262-.007.425-.007c.059,0,.139,0,.246-.008l.33-.014.324-.015c.1,0,.181-.007.238-.007q.606.663,1.11,1.211t1.146,1.24q.642.691,1.311,1.426t1.313,1.434l1.152,1.254q.51.555.837.9t.337.375h.016c.019,0,.027-.009.027-.029s0-.163-.006-.4-.008-.528-.008-.864,0-.712-.007-1.1-.006-.73-.006-1.038c0-.231,0-.477-.008-.742s-.008-.53-.008-.8v-.778c0-.25,0-.476-.014-.678a1.536,1.536,0,0,0-.13-.619.911.911,0,0,0-.324-.368,1.609,1.609,0,0,0-.513-.209q-.3-.072-.718-.129v-.087q.23,0,.517.007c.192.005.388.015.584.029s.392.027.583.036.37.015.535.015q.575,0,1.1-.029c.345-.019.658-.038.935-.057v.1a2.412,2.412,0,0,0-1.233.346,1.25,1.25,0,0,0-.4.951c-.01.163-.017.36-.021.59s-.008.5-.008.807l-.014,2.58q0,.677-.015,1.355c-.01.452-.018.874-.021,1.268s-.009.749-.016,1.067-.006.572-.006.764C914.223,513.864,914.221,513.982,914.215,514.121Z" transform="translate(-744.938 -501.272)" fill="#fff"/>
    </g>
    <g id="Group_18" data-name="Group 18" transform="translate(-1429.416 -99.413)">
      <path id="Path_53" data-name="Path 53" d="M434.484,606.737v-1.872h-1.932v1.872h-.758V602.6h.758v1.658h1.932V602.6h.758v4.14Z" transform="translate(-431.794 -602.493)" fill="#fff"/>
      <path id="Path_54" data-name="Path 54" d="M475.464,604.161a2.263,2.263,0,0,1-.17.884,2.136,2.136,0,0,1-1.183,1.172,2.406,2.406,0,0,1-1.763,0,2.187,2.187,0,0,1-.711-.464,2.157,2.157,0,0,1-.475-.7,2.235,2.235,0,0,1-.173-.884,1.954,1.954,0,0,1,.184-.846,2.178,2.178,0,0,1,.491-.675,2.281,2.281,0,0,1,.711-.448,2.309,2.309,0,0,1,1.7,0,2.311,2.311,0,0,1,.714.445,2.143,2.143,0,0,1,.491.672A1.961,1.961,0,0,1,475.464,604.161Zm-.785.006a1.257,1.257,0,0,0-.115-.533,1.5,1.5,0,0,0-.312-.448,1.479,1.479,0,0,0-.462-.307,1.4,1.4,0,0,0-.56-.113,1.425,1.425,0,0,0-.562.113,1.467,1.467,0,0,0-.464.307,1.5,1.5,0,0,0-.313.448,1.267,1.267,0,0,0-.115.533,1.482,1.482,0,0,0,.115.584,1.5,1.5,0,0,0,.313.472,1.464,1.464,0,0,0,.461.316,1.378,1.378,0,0,0,.56.115,1.4,1.4,0,0,0,.563-.115,1.462,1.462,0,0,0,.464-.316,1.5,1.5,0,0,0,.313-.472A1.47,1.47,0,0,0,474.678,604.166Z" transform="translate(-463.703 -602.036)" fill="#fff"/>
      <path id="Path_55" data-name="Path 55" d="M515.541,603.245v3.491h-.758V603.25h-.966V602.6H516.5v.648Z" transform="translate(-498.57 -602.493)" fill="#fff"/>
      <path id="Path_56" data-name="Path 56" d="M548.226,606.737V602.6h2.212v.648h-1.455v1.01h1.4v.653h-1.4v1.175h1.455v.653Z" transform="translate(-526.583 -602.493)" fill="#fff"/>
      <path id="Path_57" data-name="Path 57" d="M581.692,606.737V602.6h.758v3.486h1.2v.653Z" transform="translate(-553.828 -602.493)" fill="#fff"/>
    </g>
    <g id="Group_19" data-name="Group 19" transform="translate(-1425.953 -93.362)">
      <path id="Path_58" data-name="Path 58" d="M566.239,636.171l-1.485-.215-.667-1.346h0l-.063.13-.089.183-.4.808-.112.225-1.154.168-.328.049,1.071,1.047-.253,1.477,1.328-.7,1.328.7-.253-1.481Zm-2.169,1.383-.784.412.15-.872-.633-.617.194-.027.679-.1.067-.133.234-.477.053-.105.038-.078h0l.39.794.876.127-.634.617.15.872Z" transform="translate(-541.213 -634.605)" fill="#fff"/>
      <path id="Path_59" data-name="Path 59" d="M453.237,635.954l-.665-1.345-.151.311-.512,1.034-1.483.215,1.072,1.047-.253,1.476,1.328-.7,1.329.7-.253-1.479,1.075-1.049Z" transform="translate(-450.426 -634.605)" fill="#fff"/>
      <path id="Path_60" data-name="Path 60" d="M490.4,635.938l-.667-1.348-.152.314-.512,1.034-1.483.215,1.075,1.045-.255,1.48,1.33-.7,1.327.7-.254-1.483,1.074-1.046Z" transform="translate(-480.681 -634.59)" fill="#fff"/>
      <path id="Path_61" data-name="Path 61" d="M527.578,635.937l-.666-1.347-.152.314-.51,1.033-1.485.218,1.074,1.046-.253,1.478,1.327-.7,1.329.7-.256-1.481,1.079-1.047Z" transform="translate(-510.947 -634.59)" fill="#fff"/>
    </g>
  </g>
</svg>
