<svg xmlns="http://www.w3.org/2000/svg" width="37.073" height="37.073" viewBox="0 0 37.073 37.073">
  <path id="Icon_awesome-pen-fancy" data-name="Icon awesome-pen-fancy" d="M5.567,19.894a2.25,2.25,0,0,0-1.423,1.423L0,33.75l.33.33,6.531-6.531A2.164,2.164,0,0,1,6.751,27,2.25,2.25,0,1,1,9,29.25a2.164,2.164,0,0,1-.548-.11L1.921,35.671,2.25,36l12.433-4.144a2.249,2.249,0,0,0,1.423-1.423l2.325-5.911-6.952-6.952Zm20.4-17.9L13.088,16.018l6.88,6.88L33.995,10.023C39.966,4.745,31.2-3.933,25.963,1.991Z" transform="translate(0.572 0.501)" fill="none" stroke="#fff" stroke-width="1"/>
</svg>
