<svg xmlns="http://www.w3.org/2000/svg" width="46.326" height="66.916" viewBox="0 0 46.326 66.916">
  <g id="Group_546" data-name="Group 546" transform="translate(-604.506 -5238.334)">
    <path id="Icon_ionic-ios-pin" data-name="Icon ionic-ios-pin" d="M31.038,3.375C18.25,3.375,7.875,13.01,7.875,24.881c0,16.729,23.163,45.41,23.163,45.41S54.2,41.61,54.2,24.881C54.2,13.01,43.826,3.375,31.038,3.375Z" transform="translate(596.631 5234.959)" fill="#90bdde"/>
    <g id="Group_542" data-name="Group 542" transform="translate(50.336 5072.785)">
      <g id="Group_1" data-name="Group 1" transform="translate(565 173)">
        <path id="Path_1" data-name="Path 1" d="M214.365,335.622a5.762,5.762,0,0,0-4.216,1.465c-2.786,2.8-1.819,6.877-1.286,8.209.166.414.654,2.4-.979,2.4-1.741,0-1.145-1.984-.978-2.4.531-1.332,1.5-5.407-1.286-8.209a5.761,5.761,0,0,0-4.216-1.465,5.556,5.556,0,0,0-5.854,5.363,4.174,4.174,0,0,0,3.812,4.447c1.864.158,3.823-.831,3.8-3.3a2.336,2.336,0,0,0-3.4-2.109c-2.081,1.251-.2,3.783,1.169,2.449a.723.723,0,0,1-.117.012.591.591,0,0,1-.659-.619.742.742,0,0,1,1.484,0,1.648,1.648,0,0,1-1.8,1.762,2.117,2.117,0,0,1-2-2.636c.592-2.572,3.469-2.662,4.619-2.071a3.237,3.237,0,0,1,1.96,3.033,8.578,8.578,0,0,1-1.55,4.683c-3.839,6.222.046,11.683,4.976,11.744v0h.083v0c4.931-.061,8.816-5.522,4.976-11.744a8.588,8.588,0,0,1-1.549-4.683,3.237,3.237,0,0,1,1.96-3.033c1.149-.591,4.027-.5,4.619,2.071a2.116,2.116,0,0,1-2,2.636,1.648,1.648,0,0,1-1.8-1.762.742.742,0,0,1,1.484,0,.592.592,0,0,1-.66.619.73.73,0,0,1-.117-.012c1.371,1.334,3.252-1.2,1.169-2.449a2.336,2.336,0,0,0-3.4,2.109c-.021,2.474,1.94,3.463,3.8,3.3a4.173,4.173,0,0,0,3.812-4.447A5.553,5.553,0,0,0,214.365,335.622Z" transform="translate(-195.55 -326.611)" fill="#fff"/>
        <path id="Path_2" data-name="Path 2" d="M388.57,192.864s1-2.147,4.33-2.528l.581-1.091-1.445-.114.706-2.032-1.9.983-.3-1.419-1.18.842-.772-2.024-.816,1.988-1.142-.892-.364,1.4-1.9-1.069.663,2.062-1.45.049.624,1.309-.017,0A5.64,5.64,0,0,1,388.57,192.864Z" transform="translate(-376.252 -182.324)" fill="#fff"/>
        <path id="Path_3" data-name="Path 3" d="M280.321,232.366a1.065,1.065,0,1,1-.312-.754A1.065,1.065,0,0,1,280.321,232.366Z" transform="translate(-274.969 -226.358)" fill="#fff"/>
        <path id="Path_4" data-name="Path 4" d="M362.432,138.346a1.066,1.066,0,1,1-1.065-1.066A1.066,1.066,0,0,1,362.432,138.346Z" transform="translate(-353.879 -136.002)" fill="#fff"/>
        <path id="Path_5" data-name="Path 5" d="M609.061,138.346A1.065,1.065,0,1,1,608,137.28,1.065,1.065,0,0,1,609.061,138.346Z" transform="translate(-590.898 -136.002)" fill="#fff"/>
        <path id="Path_6" data-name="Path 6" d="M693.262,232.366a1.066,1.066,0,1,1-.312-.754A1.066,1.066,0,0,1,693.262,232.366Z" transform="translate(-671.816 -226.358)" fill="#fff"/>
        <path id="Path_7" data-name="Path 7" d="M487.641,105.566a1.065,1.065,0,1,1-.312-.754A1.065,1.065,0,0,1,487.641,105.566Z" transform="translate(-474.21 -104.5)" fill="#fff"/>
      </g>
    </g>
  </g>
</svg>
