<svg xmlns="http://www.w3.org/2000/svg" width="31.428" height="31.436" viewBox="0 0 31.428 31.436">
  <path id="Icon_ionic-ios-pricetag" data-name="Icon ionic-ios-pricetag" d="M30.6,3.375H21.959a1.017,1.017,0,0,0-.717.3L3.966,20.946a2.029,2.029,0,0,0,0,2.862l8.227,8.227a2.029,2.029,0,0,0,2.862,0L32.323,14.766a1.017,1.017,0,0,0,.3-.717V5.4A2.015,2.015,0,0,0,30.6,3.375Zm-3.354,7.861a2.249,2.249,0,1,1,1.99-1.99A2.252,2.252,0,0,1,27.246,11.236Z" transform="translate(-2.19 -2.375)" fill="none" stroke="#237dbe" stroke-width="2"/>
</svg>
