<svg xmlns="http://www.w3.org/2000/svg" width="30" height="31.637" viewBox="0 0 30 31.637">
  <path id="Icon_awesome-viber" data-name="Icon awesome-viber" d="M27.544,3.083C26.76,2.36,23.584.056,16.5.025c0,0-8.347-.5-12.412,3.231C1.83,5.518,1.033,8.835.947,12.944s-.192,11.807,7.229,13.9h.006l-.006,3.188s-.049,1.291.8,1.551c1.026.321,1.631-.661,2.613-1.718.538-.581,1.279-1.433,1.841-2.082a28.71,28.71,0,0,0,9.422-.692c1.026-.334,6.827-1.075,7.766-8.773.976-7.945-.47-12.962-3.077-15.23ZM28.4,17.732c-.8,6.425-5.5,6.833-6.364,7.111a26.562,26.562,0,0,1-8.106.692s-3.213,3.874-4.214,4.881c-.327.327-.686.3-.68-.352,0-.426.025-5.295.025-5.295h0c-6.29-1.742-5.919-8.3-5.851-11.726S3.931,6.8,5.846,4.912c3.441-3.12,10.528-2.657,10.528-2.657,5.987.025,8.854,1.829,9.521,2.434C28.1,6.58,29.225,11.1,28.4,17.732ZM19.815,12.74a.4.4,0,1,1-.8.037A1.911,1.911,0,0,0,17,10.683a.4.4,0,0,1,.043-.8A2.686,2.686,0,0,1,19.815,12.74Zm1.254.7c.062-2.62-1.575-4.671-4.683-4.9a.4.4,0,0,1,.056-.8,5.411,5.411,0,0,1,5.425,5.715.4.4,0,0,1-.8-.019Zm2.9.828a.4.4,0,0,1-.8.006c-.037-5.035-3.392-7.779-7.463-7.809a.4.4,0,0,1,0-.8C20.266,5.7,23.93,8.842,23.973,14.266Zm-.7,6.061v.012c-.667,1.174-1.915,2.471-3.2,2.057l-.012-.019a23.749,23.749,0,0,1-6.314-3.491,16.152,16.152,0,0,1-2.62-2.62,20.049,20.049,0,0,1-1.9-2.879A18.461,18.461,0,0,1,7.619,9.947c-.414-1.285.877-2.533,2.057-3.2h.012a1.125,1.125,0,0,1,1.477.241s.766.914,1.094,1.365c.309.42.723,1.094.939,1.47a1.29,1.29,0,0,1-.229,1.643l-.741.593a1.087,1.087,0,0,0-.327.865,7.736,7.736,0,0,0,5.208,5.208,1.087,1.087,0,0,0,.865-.327l.593-.741a1.29,1.29,0,0,1,1.643-.229,16.008,16.008,0,0,1,2.83,2.033,1.1,1.1,0,0,1,.235,1.458Z" transform="translate(-0.927 -0.003)" fill="#a5b9b9"/>
</svg>
